<?xml version="1.0" encoding="utf-8"?>
<!-- Generator: Adobe Illustrator 27.5.0, SVG Export Plug-In . SVG Version: 6.00 Build 0)  -->
<svg version="1.1" xmlns="http://www.w3.org/2000/svg" xmlns:xlink="http://www.w3.org/1999/xlink" x="0px" y="0px"
	 viewBox="0 0 500 500" style="enable-background:new 0 0 500 500;" xml:space="preserve">
<g id="BACKGROUND">
	<rect style="fill:#FFFFFF;" width="500" height="500"/>
</g>
<g id="OBJECTS">
	<g>
		<path style="fill:#E5DEF9;" d="M302.003,194.995c88.941-31.323,180.363,12.083,125.166,109.222
			c-53.693,94.493,25.365,119.531,25.365,119.531L129.184,422C63.378,398.188,7.385,294.662,68.973,262.1
			c0,0,39.186-7.542,42.705-34.887c3.519-27.345-12.066-49.775,13.071-66.965s67.413-12.463,106.581,21.033
			C261.495,207.078,302.003,194.995,302.003,194.995z"/>
	</g>
	<ellipse style="fill:#E5DEF9;" cx="252.956" cy="428.001" rx="221.255" ry="13.999"/>
	<g>
		<g>
			<path style="fill:#E5DEF9;" d="M478.355,347.317l-3.844-4.497l-4.213,3.601c-1.123-0.885-2.398-1.583-3.778-2.074l0.422-5.382
				l-5.898-0.462l-0.404,5.152c-1.809,0.196-3.523,0.754-5.056,1.613l-3.602-4.215l-4.497,3.844l3.712,4.343
				c-0.687,0.975-1.246,2.045-1.654,3.196l-5.383-0.422l-0.462,5.898l5.152,0.404c0.196,1.809,0.754,3.523,1.613,5.056l-3.684,3.148
				l3.843,4.498l3.813-3.259c1.244,0.877,2.642,1.551,4.161,1.961l-0.404,5.153l5.898,0.462l0.422-5.383
				c1.677-0.312,3.249-0.942,4.654-1.83l3.623,4.24l4.497-3.844l-3.928-4.596c0.682-1.088,1.21-2.283,1.556-3.561l5.152,0.404
				l0.462-5.898l-5.382-0.422c-0.224-1.199-0.609-2.344-1.136-3.415L478.355,347.317z M467.481,357.304
				c-0.234,2.981-2.848,5.216-5.829,4.982c-2.981-0.234-5.216-2.848-4.982-5.829c0.234-2.981,2.848-5.216,5.829-4.982
				C465.48,351.708,467.714,354.323,467.481,357.304z"/>
			<path style="fill:#E5DEF9;" d="M480.512,317.697l-2.101-2.457l-2.303,1.968c-0.614-0.484-1.31-0.865-2.065-1.133l0.23-2.941
				l-3.223-0.253l-0.221,2.815c-0.989,0.107-1.925,0.412-2.763,0.882l-1.968-2.303l-2.458,2.101l2.029,2.373
				c-0.376,0.533-0.68,1.118-0.904,1.747l-2.942-0.231l-0.253,3.223l2.815,0.221c0.107,0.989,0.412,1.925,0.882,2.763l-2.013,1.72
				l2.1,2.458l2.084-1.781c0.68,0.479,1.444,0.847,2.274,1.072l-0.221,2.816l3.223,0.252l0.231-2.942
				c0.916-0.171,1.775-0.515,2.543-1l1.98,2.317l2.458-2.101l-2.147-2.512c0.373-0.595,0.662-1.248,0.85-1.946l2.816,0.221
				l0.253-3.223l-2.941-0.23c-0.122-0.655-0.333-1.281-0.621-1.866L480.512,317.697z M474.569,323.155
				c-0.128,1.629-1.556,2.85-3.186,2.723c-1.629-0.128-2.85-1.557-2.723-3.186c0.128-1.629,1.557-2.85,3.186-2.723
				C473.476,320.097,474.697,321.526,474.569,323.155z"/>
		</g>
		<g>
			<path style="fill:#E5DEF9;" d="M58.244,244.375l-1.004-5.83l-5.462,0.94c-0.512-1.334-1.251-2.586-2.186-3.714l3.115-4.41
				l-4.832-3.413l-2.981,4.221c-1.655-0.757-3.413-1.154-5.17-1.199l-0.94-5.464l-5.83,1.004l0.969,5.631
				c-1.089,0.486-2.116,1.121-3.055,1.901l-4.41-3.116l-3.413,4.832l4.221,2.981c-0.757,1.655-1.154,3.413-1.199,5.17l-4.776,0.821
				l1.003,5.83l4.944-0.851c0.62,1.39,1.478,2.684,2.572,3.813l-2.982,4.221l4.832,3.413l3.116-4.41
				c1.601,0.589,3.273,0.852,4.936,0.807l0.945,5.496l5.83-1.004l-1.025-5.958c1.142-0.586,2.207-1.343,3.158-2.265l4.221,2.982
				l3.413-4.832l-4.41-3.115c0.421-1.145,0.676-2.326,0.77-3.516L58.244,244.375z M43.792,247.396
				c-1.725,2.442-5.115,3.026-7.557,1.3c-2.442-1.725-3.026-5.115-1.3-7.557c1.725-2.442,5.115-3.026,7.557-1.301
				C44.934,241.564,45.518,244.954,43.792,247.396z"/>
			<path style="fill:#E5DEF9;" d="M37.239,278.337l-0.549-3.186l-2.985,0.514c-0.28-0.73-0.684-1.414-1.195-2.03l1.702-2.41
				l-2.641-1.865l-1.629,2.307c-0.904-0.414-1.865-0.631-2.825-0.655l-0.513-2.986l-3.186,0.549l0.53,3.077
				c-0.595,0.266-1.156,0.612-1.67,1.039l-2.41-1.703l-1.865,2.641l2.307,1.629c-0.413,0.904-0.631,1.865-0.655,2.825l-2.61,0.449
				l0.548,3.187l2.701-0.465c0.339,0.759,0.808,1.466,1.406,2.084l-1.63,2.307l2.641,1.865l1.703-2.41
				c0.875,0.322,1.789,0.466,2.697,0.441l0.517,3.004l3.186-0.549l-0.56-3.256c0.624-0.32,1.207-0.734,1.726-1.238l2.307,1.63
				l1.865-2.641l-2.41-1.702c0.23-0.626,0.369-1.271,0.421-1.921L37.239,278.337z M29.341,279.989
				c-0.943,1.335-2.795,1.654-4.13,0.711c-1.334-0.943-1.653-2.795-0.71-4.13c0.943-1.335,2.795-1.653,4.13-0.711
				C29.965,276.802,30.284,278.654,29.341,279.989z"/>
		</g>
	</g>
	<g>
		<path style="fill:#E5DEF9;" d="M176.402,94.643c0,1.046-0.426,1.999-1.12,2.689c-0.686,0.694-1.639,1.121-2.685,1.121H91.153
			c-2.092,0-3.806-1.714-3.806-3.81c0-1.046,0.426-2,1.121-2.689c0.685-0.695,1.639-1.121,2.685-1.121h3.849
			c1.52-3.533,5.031-6.002,9.118-6.002c2.751,0,5.238,1.12,7.04,2.926c2.399-4.069,6.824-6.802,11.891-6.802
			c1.393,0,2.733,0.211,3.999,0.593c2.65-4.983,7.888-8.376,13.926-8.376c7.251,0,13.35,4.895,15.191,11.557
			c1.336-0.668,2.843-1.05,4.443-1.05c4.522,0,8.336,3.019,9.536,7.154h2.452C174.689,90.832,176.402,92.546,176.402,94.643z"/>
		<path style="fill:#E5DEF9;" d="M435.109,104.044c0,1.046-0.426,1.999-1.12,2.689c-0.686,0.694-1.639,1.121-2.685,1.121H349.86
			c-2.092,0-3.805-1.714-3.805-3.81c0-1.046,0.426-1.999,1.121-2.689c0.685-0.694,1.639-1.121,2.685-1.121h3.85
			c1.52-3.533,5.031-6.003,9.118-6.003c2.751,0,5.238,1.12,7.04,2.926c2.399-4.069,6.824-6.802,11.891-6.802
			c1.393,0,2.733,0.211,3.999,0.593c2.65-4.983,7.888-8.376,13.926-8.376c7.251,0,13.35,4.896,15.191,11.557
			c1.336-0.668,2.843-1.05,4.442-1.05c4.522,0,8.336,3.019,9.536,7.154h2.452C433.395,100.234,435.109,101.948,435.109,104.044z"/>
		<path style="fill:#E5DEF9;" d="M311.458,147.74c0,1.046-0.426,2-1.12,2.689c-0.686,0.694-1.639,1.121-2.685,1.121h-81.444
			c-2.092,0-3.805-1.714-3.805-3.81c0-1.046,0.426-1.999,1.121-2.689c0.685-0.695,1.639-1.121,2.685-1.121h3.85
			c1.52-3.533,5.031-6.003,9.118-6.003c2.751,0,5.238,1.12,7.04,2.926c2.399-4.069,6.824-6.802,11.891-6.802
			c1.393,0,2.733,0.211,3.999,0.593c2.65-4.983,7.888-8.376,13.926-8.376c7.251,0,13.35,4.895,15.191,11.557
			c1.336-0.668,2.843-1.05,4.443-1.05c4.522,0,8.336,3.019,9.536,7.154h2.452C309.745,143.93,311.458,145.644,311.458,147.74z"/>
	</g>
	<g>
		<g>
			<g>
				<g>
					<path style="fill:#7742C6;" d="M475.387,184.238c3.014,0,5.466,2.452,5.466,5.466c0,3.014-2.452,5.466-5.466,5.466
						c-3.014,0-5.466-2.452-5.466-5.466C469.921,186.69,472.373,184.238,475.387,184.238z M475.387,185.953
						c-2.069,0-3.751,1.683-3.751,3.751c0,2.068,1.683,3.751,3.751,3.751c2.068,0,3.751-1.683,3.751-3.751
						C479.139,187.636,477.456,185.953,475.387,185.953z"/>
				</g>
				<g>
					<g>
						<g>
							<path style="fill:#FBAE08;" d="M469.826,156.457c3.014,0,5.466,2.452,5.466,5.466s-2.452,5.466-5.466,5.466
								c-3.014,0-5.466-2.452-5.466-5.466S466.812,156.457,469.826,156.457z M469.826,158.172c-2.069,0-3.751,1.683-3.751,3.751
								s1.683,3.751,3.751,3.751c2.069,0,3.751-1.683,3.751-3.751S471.895,158.172,469.826,158.172z"/>
						</g>
					</g>
				</g>
				<g>
					<g>
						<g>
							<path style="fill:#7742C6;" d="M453.199,148.76c0,0.473,0.384,0.857,0.857,0.857h3.781c0.473,0,0.857-0.384,0.857-0.857
								c0-0.474-0.384-0.857-0.857-0.857h-3.781C453.583,147.902,453.199,148.286,453.199,148.76z"/>
						</g>
						<g>
							<path style="fill:#7742C6;" d="M446.582,148.76c0,0.473,0.384,0.857,0.857,0.857h3.781c0.474,0,0.857-0.384,0.857-0.857
								c0-0.474-0.384-0.857-0.857-0.857h-3.781C446.966,147.902,446.582,148.286,446.582,148.76z"/>
						</g>
					</g>
					<g>
						<g>
							<path style="fill:#7742C6;" d="M451.781,143.452v3.397c0,0.474,0.384,0.858,0.858,0.858c0.474,0,0.857-0.384,0.857-0.858
								v-3.397c0-0.473-0.384-0.857-0.857-0.857C452.165,142.595,451.781,142.979,451.781,143.452z"/>
						</g>
						<g>
							<path style="fill:#7742C6;" d="M451.781,150.67v3.397c0,0.473,0.384,0.857,0.858,0.857c0.474,0,0.857-0.384,0.857-0.857
								v-3.397c0-0.474-0.384-0.857-0.857-0.857C452.165,149.813,451.781,150.197,451.781,150.67z"/>
						</g>
					</g>
				</g>
				<g>
					<g>
						<g>
							<g>
								<g>
									<path style="fill:#FBAE08;" d="M459.366,177.954c0,0.473,0.384,0.857,0.857,0.857h3.781c0.474,0,0.857-0.384,0.857-0.857
										c0-0.474-0.384-0.857-0.857-0.857h-3.781C459.749,177.097,459.366,177.481,459.366,177.954z"/>
								</g>
							</g>
							<g>
								<g>
									<path style="fill:#FBAE08;" d="M452.748,177.954c0,0.473,0.384,0.857,0.858,0.857h3.781c0.474,0,0.858-0.384,0.858-0.857
										c0-0.474-0.384-0.857-0.858-0.857h-3.781C453.132,177.097,452.748,177.481,452.748,177.954z"/>
								</g>
							</g>
						</g>
						<g>
							<g>
								<g>
									<path style="fill:#FBAE08;" d="M457.948,172.647v3.397c0,0.473,0.384,0.857,0.857,0.857c0.474,0,0.857-0.384,0.857-0.857
										v-3.397c0-0.473-0.384-0.857-0.857-0.857C458.331,171.789,457.948,172.173,457.948,172.647z"/>
								</g>
							</g>
							<g>
								<g>
									<path style="fill:#FBAE08;" d="M457.948,179.865v3.397c0,0.473,0.384,0.857,0.857,0.857c0.474,0,0.857-0.384,0.857-0.857
										v-3.397c0-0.473-0.384-0.857-0.857-0.857C458.331,179.008,457.948,179.392,457.948,179.865z"/>
								</g>
							</g>
						</g>
					</g>
				</g>
			</g>
		</g>
		<g>
			<g>
				<g>
					<path style="fill:#7742C6;" d="M87.291,142.661c0,3.014-2.452,5.466-5.466,5.466s-5.466-2.452-5.466-5.466
						c0-3.014,2.452-5.466,5.466-5.466S87.291,139.647,87.291,142.661z M85.576,142.661c0-2.068-1.683-3.751-3.751-3.751
						c-2.068,0-3.751,1.683-3.751,3.751s1.683,3.751,3.751,3.751C83.894,146.412,85.576,144.73,85.576,142.661z"/>
				</g>
				<g>
					<g>
						<g>
							<path style="fill:#FBAE08;" d="M112.423,142.661c0,3.014-2.452,5.466-5.466,5.466s-5.466-2.452-5.466-5.466
								c0-3.014,2.452-5.466,5.466-5.466S112.423,139.647,112.423,142.661z M110.708,142.661c0-2.068-1.683-3.751-3.751-3.751
								c-2.068,0-3.751,1.683-3.751,3.751c0,2.069,1.683,3.751,3.751,3.751C109.026,146.412,110.708,144.73,110.708,142.661z"/>
						</g>
					</g>
				</g>
				<g>
					<g>
						<g>
							<path style="fill:#7742C6;" d="M121.532,132.613c-0.473,0-0.857,0.384-0.857,0.857v3.781c0,0.474,0.384,0.857,0.857,0.857
								c0.473,0,0.857-0.384,0.857-0.857v-3.781C122.389,132.996,122.005,132.613,121.532,132.613z"/>
						</g>
						<g>
							<path style="fill:#7742C6;" d="M121.532,125.996c-0.473,0-0.857,0.384-0.857,0.857v3.781c0,0.474,0.384,0.857,0.857,0.857
								c0.473,0,0.857-0.384,0.857-0.857v-3.781C122.389,126.379,122.005,125.996,121.532,125.996z"/>
						</g>
					</g>
					<g>
						<g>
							<path style="fill:#7742C6;" d="M126.839,131.195h-3.397c-0.474,0-0.858,0.384-0.858,0.857c0,0.474,0.384,0.857,0.858,0.857
								h3.397c0.473,0,0.857-0.384,0.857-0.857C127.697,131.579,127.313,131.195,126.839,131.195z"/>
						</g>
						<g>
							<path style="fill:#7742C6;" d="M119.621,131.195h-3.397c-0.473,0-0.857,0.384-0.857,0.857c0,0.474,0.384,0.857,0.857,0.857
								h3.397c0.474,0,0.858-0.384,0.858-0.857C120.479,131.579,120.095,131.195,119.621,131.195z"/>
						</g>
					</g>
				</g>
				<g>
					<g>
						<g>
							<g>
								<g>
									<path style="fill:#FBAE08;" d="M93.25,128.039c-0.473,0-0.857,0.384-0.857,0.857v3.781c0,0.474,0.384,0.857,0.857,0.857
										c0.474,0,0.858-0.384,0.858-0.857v-3.781C94.107,128.423,93.723,128.039,93.25,128.039z"/>
								</g>
							</g>
							<g>
								<g>
									<path style="fill:#FBAE08;" d="M93.25,121.422c-0.473,0-0.857,0.384-0.857,0.858v3.781c0,0.474,0.384,0.857,0.857,0.857
										c0.474,0,0.858-0.384,0.858-0.857v-3.781C94.107,121.806,93.723,121.422,93.25,121.422z"/>
								</g>
							</g>
						</g>
						<g>
							<g>
								<g>
									<path style="fill:#FBAE08;" d="M98.557,126.621h-3.397c-0.474,0-0.857,0.384-0.857,0.857c0,0.474,0.384,0.857,0.857,0.857
										h3.397c0.473,0,0.857-0.384,0.857-0.857C99.415,127.005,99.031,126.621,98.557,126.621z"/>
								</g>
							</g>
							<g>
								<g>
									<path style="fill:#FBAE08;" d="M91.339,126.621h-3.397c-0.473,0-0.857,0.384-0.857,0.857c0,0.474,0.384,0.857,0.857,0.857
										h3.397c0.473,0,0.857-0.384,0.857-0.857C92.197,127.005,91.813,126.621,91.339,126.621z"/>
								</g>
							</g>
						</g>
					</g>
				</g>
			</g>
		</g>
	</g>
	<g>
		<g>
			<g>
				<path style="fill:#5C17AE;" d="M442.117,315.87c9.963-19.135,17.303-36.07,21.844-50.42c5.932-18.747,7.06-33.113,3.351-42.699
					c-0.246-0.635-0.96-0.951-1.596-0.705c-0.636,0.246-0.951,0.96-0.706,1.596c6.483,16.756-3.083,49.926-27.669,95.997
					L442.117,315.87z"/>
			</g>
			<path style="fill:#7742C6;" d="M467.856,248.297c0,0,9.452,4.125,16.054-12.776C483.91,235.521,467.652,233.31,467.856,248.297z"
				/>
			<path style="fill:#7742C6;" d="M464.903,257.186c0,0,4.645-9.207-11.863-16.74C453.04,240.446,449.928,256.556,464.903,257.186z"
				/>
			<path style="fill:#7742C6;" d="M467.889,230.729c0,0,7.449-7.132-5.603-19.738C462.287,210.991,453.982,225.142,467.889,230.729z
				"/>
			<path style="fill:#7742C6;" d="M459.513,275.253c0,0,7.499,7.079,19.43-6.592C478.942,268.661,464.39,261.081,459.513,275.253z"
				/>
			<path style="fill:#7742C6;" d="M455.133,283.853c0,0,6.167-8.266-8.789-18.54C446.344,265.314,440.493,280.643,455.133,283.853z"
				/>
			<path style="fill:#7742C6;" d="M450.306,296.225c0,0,7.364,7.22,19.551-6.223C469.857,290.002,455.451,282.147,450.306,296.225z"
				/>
		</g>
		<g>
			<g>
				<path style="fill:#5C17AE;" d="M68.081,226.61c-8.731-19.728-14.982-37.095-18.604-51.703
					c-4.732-19.086-4.946-33.494-0.638-42.826c0.286-0.618,1.019-0.888,1.638-0.603c0.619,0.286,0.888,1.019,0.603,1.637
					c-7.532,16.312-0.087,50.021,21.528,97.558L68.081,226.61z"/>
			</g>
			<path style="fill:#7742C6;" d="M46.677,157.541c0,0-9.694,3.517-15.212-13.768C31.465,143.773,47.831,142.598,46.677,157.541z"/>
			<path style="fill:#7742C6;" d="M49.061,166.6c0,0-4.051-9.483,12.9-15.955C61.961,150.645,64.046,166.92,49.061,166.6z"/>
			<path style="fill:#7742C6;" d="M47.758,140.007c0,0-6.981-7.59,6.843-19.343C54.6,120.664,61.992,135.313,47.758,140.007z"/>
			<path style="fill:#7742C6;" d="M53.295,184.972c0,0-7.933,6.589-18.972-7.811C34.322,177.161,49.326,170.519,53.295,184.972z"/>
			<path style="fill:#7742C6;" d="M57.121,193.833c0,0-5.63-8.64,9.946-17.945C67.067,175.888,71.935,191.557,57.121,193.833z"/>
			<path style="fill:#7742C6;" d="M61.154,206.485c0,0-7.806,6.738-19.117-7.45C42.036,199.036,56.911,192.11,61.154,206.485z"/>
		</g>
	</g>
	<g>
		<g>
			<g>
				<path style="fill:#7742C6;" d="M132.999,160.875c-0.238,0-0.478-0.075-0.681-0.23c-0.494-0.377-0.589-1.083-0.212-1.577
					c0.029-0.038,0.733-0.958,2.123-2.555c0.408-0.469,1.119-0.518,1.587-0.109s0.518,1.119,0.109,1.587
					c-1.343,1.542-2.024,2.432-2.031,2.441C133.673,160.723,133.338,160.875,132.999,160.875z"/>
			</g>
			<g>
				<g>
					<path style="fill:#7742C6;" d="M139.527,153.579c-0.284,0-0.568-0.107-0.788-0.322c-0.444-0.435-0.451-1.147-0.016-1.591
						c0.424-0.432,0.868-0.88,1.333-1.34c0.441-0.437,1.153-0.434,1.591,0.007c0.438,0.441,0.434,1.154-0.007,1.591
						c-0.457,0.453-0.894,0.893-1.311,1.318C140.11,153.466,139.819,153.579,139.527,153.579z"/>
				</g>
				<g>
					<path style="fill:#7742C6;" d="M366.434,150.591c-0.284,0-0.568-0.107-0.787-0.322c-0.871-0.853-1.776-1.716-2.69-2.565
						c-0.455-0.423-0.481-1.135-0.059-1.59c0.423-0.456,1.135-0.481,1.59-0.059c0.928,0.862,1.848,1.739,2.733,2.607
						c0.444,0.435,0.451,1.147,0.016,1.591C367.018,150.478,366.726,150.591,366.434,150.591z M144.822,148.461
						c-0.304,0-0.607-0.123-0.829-0.364c-0.42-0.458-0.39-1.169,0.068-1.589c0.915-0.84,1.861-1.687,2.812-2.517
						c0.468-0.408,1.179-0.361,1.587,0.107c0.409,0.468,0.361,1.179-0.107,1.587c-0.937,0.818-1.869,1.652-2.77,2.48
						C145.366,148.363,145.094,148.461,144.822,148.461z M359.628,144.342c-0.26,0-0.522-0.09-0.734-0.273
						c-0.932-0.803-1.889-1.608-2.846-2.392c-0.48-0.394-0.551-1.103-0.157-1.583c0.394-0.48,1.102-0.551,1.583-0.157
						c0.971,0.796,1.943,1.613,2.889,2.428c0.471,0.406,0.523,1.116,0.118,1.587C360.258,144.21,359.944,144.342,359.628,144.342z
						 M151.814,142.424c-0.327,0-0.651-0.142-0.873-0.415c-0.392-0.482-0.319-1.191,0.163-1.583
						c0.971-0.789,1.965-1.578,2.954-2.344c0.491-0.38,1.198-0.291,1.578,0.201c0.38,0.491,0.291,1.198-0.201,1.578
						c-0.976,0.756-1.956,1.534-2.913,2.312C152.315,142.341,152.064,142.424,151.814,142.424z M352.451,138.526
						c-0.238,0-0.478-0.075-0.681-0.23c-0.98-0.747-1.984-1.493-2.984-2.218c-0.503-0.365-0.615-1.068-0.25-1.571
						c0.365-0.503,1.068-0.616,1.571-0.25c1.014,0.735,2.033,1.493,3.027,2.25c0.494,0.377,0.59,1.082,0.213,1.577
						C353.125,138.373,352.79,138.526,352.451,138.526z M159.147,136.807c-0.349,0-0.693-0.162-0.913-0.467
						c-0.364-0.504-0.25-1.207,0.254-1.57c1.015-0.732,2.052-1.463,3.083-2.171c0.512-0.352,1.212-0.222,1.564,0.29
						c0.352,0.512,0.222,1.212-0.29,1.564c-1.017,0.699-2.04,1.419-3.041,2.141C159.606,136.738,159.375,136.807,159.147,136.807z
						 M344.943,133.145c-0.216,0-0.435-0.062-0.628-0.192c-1.02-0.687-2.066-1.373-3.108-2.04c-0.523-0.335-0.676-1.03-0.342-1.554
						c0.335-0.524,1.03-0.676,1.554-0.342c1.057,0.676,2.118,1.372,3.153,2.069c0.515,0.347,0.652,1.046,0.305,1.561
						C345.66,132.971,345.305,133.145,344.943,133.145z M166.787,131.618c-0.371,0-0.735-0.184-0.949-0.52
						c-0.334-0.523-0.181-1.219,0.343-1.553c1.053-0.673,2.13-1.343,3.2-1.993c0.531-0.322,1.223-0.153,1.545,0.378
						c0.322,0.531,0.153,1.223-0.378,1.545c-1.056,0.641-2.118,1.302-3.157,1.965C167.204,131.561,166.994,131.618,166.787,131.618z
						 M337.135,128.214c-0.195,0-0.392-0.051-0.572-0.157c-1.061-0.628-2.145-1.252-3.222-1.855
						c-0.542-0.304-0.736-0.989-0.432-1.531c0.304-0.542,0.989-0.735,1.531-0.432c1.092,0.612,2.192,1.245,3.268,1.881
						c0.535,0.316,0.712,1.006,0.396,1.541C337.894,128.016,337.519,128.214,337.135,128.214z M174.708,126.87
						c-0.393,0-0.775-0.207-0.982-0.574c-0.304-0.542-0.112-1.228,0.43-1.532c1.093-0.614,2.206-1.222,3.308-1.808
						c0.549-0.292,1.23-0.083,1.521,0.465c0.292,0.549,0.083,1.23-0.465,1.521c-1.087,0.578-2.185,1.178-3.263,1.783
						C175.084,126.823,174.894,126.87,174.708,126.87z M329.053,123.747c-0.173,0-0.349-0.04-0.514-0.125
						c-1.096-0.565-2.215-1.124-3.325-1.663c-0.559-0.271-0.792-0.944-0.521-1.503c0.271-0.559,0.944-0.792,1.503-0.521
						c1.126,0.547,2.26,1.114,3.372,1.687c0.552,0.285,0.77,0.963,0.485,1.515C329.854,123.524,329.461,123.747,329.053,123.747z
						 M182.884,122.579c-0.416,0-0.816-0.232-1.011-0.631c-0.273-0.558-0.042-1.232,0.516-1.505c1.125-0.55,2.271-1.094,3.406-1.617
						c0.564-0.26,1.233-0.013,1.492,0.551s0.013,1.232-0.551,1.492c-1.119,0.515-2.249,1.052-3.358,1.594
						C183.219,122.542,183.05,122.579,182.884,122.579z M320.724,119.76c-0.152,0-0.307-0.031-0.455-0.097
						c-1.126-0.499-2.275-0.992-3.416-1.465c-0.574-0.238-0.846-0.896-0.608-1.47c0.238-0.574,0.897-0.846,1.47-0.608
						c1.157,0.48,2.323,0.98,3.466,1.486c0.568,0.252,0.824,0.916,0.573,1.484C321.567,119.511,321.156,119.76,320.724,119.76z
						 M191.291,118.762c-0.439,0-0.857-0.259-1.038-0.69c-0.241-0.573,0.029-1.232,0.602-1.473c1.152-0.484,2.327-0.961,3.492-1.419
						c0.579-0.226,1.231,0.058,1.459,0.636c0.227,0.578-0.058,1.231-0.636,1.458c-1.149,0.451-2.308,0.922-3.444,1.399
						C191.584,118.734,191.437,118.762,191.291,118.762z M312.176,116.271c-0.131,0-0.264-0.023-0.394-0.072
						c-1.152-0.431-2.328-0.856-3.496-1.261c-0.587-0.204-0.897-0.845-0.694-1.432c0.204-0.587,0.845-0.898,1.432-0.694
						c1.184,0.411,2.378,0.842,3.546,1.28c0.582,0.218,0.877,0.866,0.659,1.448C313.061,115.992,312.632,116.271,312.176,116.271z
						 M199.903,115.433c-0.463,0-0.897-0.288-1.061-0.75c-0.207-0.586,0.1-1.229,0.685-1.436c1.179-0.417,2.38-0.826,3.568-1.216
						c0.59-0.193,1.226,0.128,1.419,0.719c0.194,0.59-0.128,1.226-0.719,1.419c-1.172,0.384-2.356,0.787-3.518,1.199
						C200.154,115.412,200.028,115.433,199.903,115.433z M303.439,113.29c-0.11,0-0.222-0.016-0.332-0.05
						c-1.176-0.363-2.375-0.717-3.564-1.054c-0.598-0.169-0.945-0.791-0.776-1.389c0.169-0.598,0.79-0.946,1.389-0.776
						c1.206,0.341,2.422,0.701,3.615,1.069c0.594,0.183,0.927,0.813,0.743,1.407C304.365,112.98,303.92,113.29,303.439,113.29z
						 M208.691,112.606c-0.488,0-0.937-0.32-1.08-0.812c-0.173-0.597,0.17-1.221,0.767-1.394c1.202-0.349,2.424-0.688,3.632-1.008
						c0.601-0.159,1.217,0.199,1.376,0.799c0.159,0.601-0.198,1.216-0.799,1.376c-1.191,0.316-2.396,0.65-3.581,0.994
						C208.9,112.591,208.795,112.606,208.691,112.606z M294.543,110.827c-0.089,0-0.179-0.011-0.27-0.033
						c-1.197-0.294-2.414-0.578-3.619-0.844c-0.607-0.134-0.99-0.734-0.856-1.341c0.134-0.606,0.734-0.989,1.341-0.856
						c1.222,0.27,2.457,0.558,3.671,0.856c0.603,0.148,0.972,0.758,0.824,1.361C295.508,110.483,295.049,110.827,294.543,110.827z
						 M217.627,110.288c-0.513,0-0.976-0.353-1.096-0.874c-0.139-0.606,0.24-1.209,0.845-1.348c1.217-0.279,2.457-0.548,3.683-0.799
						c0.607-0.125,1.203,0.268,1.328,0.877c0.125,0.609-0.268,1.203-0.876,1.328c-1.21,0.248-2.432,0.513-3.633,0.788
						C217.794,110.279,217.71,110.288,217.627,110.288z M285.519,108.885c-0.068,0-0.137-0.006-0.206-0.019
						c-1.21-0.224-2.443-0.438-3.662-0.634c-0.613-0.099-1.03-0.676-0.931-1.29c0.099-0.613,0.676-1.032,1.29-0.931
						c1.237,0.199,2.486,0.416,3.714,0.643c0.611,0.113,1.014,0.7,0.901,1.311C286.523,108.506,286.05,108.885,285.519,108.885z
						 M226.68,108.484c-0.539,0-1.015-0.388-1.108-0.937c-0.104-0.613,0.308-1.193,0.921-1.298c1.234-0.21,2.486-0.408,3.722-0.589
						c0.613-0.09,1.186,0.335,1.276,0.95c0.09,0.615-0.335,1.186-0.95,1.276c-1.219,0.179-2.455,0.374-3.672,0.581
						C226.806,108.479,226.742,108.484,226.68,108.484z M276.398,107.463c-0.047,0-0.095-0.003-0.143-0.009
						c-1.221-0.155-2.464-0.299-3.693-0.427c-0.618-0.064-1.067-0.617-1.003-1.235c0.064-0.618,0.619-1.066,1.235-1.003
						c1.246,0.13,2.505,0.275,3.743,0.432c0.616,0.078,1.053,0.641,0.974,1.258C277.441,107.047,276.956,107.463,276.398,107.463z
						 M235.82,107.193c-0.565,0-1.052-0.424-1.117-0.999c-0.07-0.617,0.374-1.174,0.992-1.244c1.238-0.14,2.5-0.268,3.748-0.381
						c0.621-0.055,1.166,0.401,1.222,1.019c0.056,0.619-0.4,1.166-1.019,1.222c-1.232,0.111-2.477,0.238-3.699,0.375
						C235.905,107.191,235.862,107.193,235.82,107.193z M267.212,106.555c-0.027,0-0.054-0.001-0.081-0.003
						c-1.224-0.087-2.473-0.162-3.711-0.222c-0.621-0.03-1.099-0.558-1.069-1.179c0.03-0.621,0.558-1.098,1.179-1.069
						c1.255,0.061,2.52,0.137,3.761,0.225c0.62,0.044,1.087,0.582,1.042,1.202C268.291,106.102,267.797,106.555,267.212,106.555z
						 M245.018,106.411c-0.592,0-1.088-0.462-1.122-1.06c-0.036-0.62,0.438-1.152,1.058-1.188c1.248-0.072,2.514-0.131,3.763-0.175
						c0.619-0.02,1.142,0.463,1.164,1.084c0.022,0.621-0.463,1.142-1.084,1.164c-1.233,0.044-2.482,0.102-3.714,0.173
						C245.062,106.41,245.04,106.411,245.018,106.411z M257.989,106.15c-0.006,0-0.013,0-0.019,0
						c-1.233-0.021-2.485-0.029-3.719-0.024c-0.002,0-0.003,0-0.005,0c-0.619,0-1.122-0.501-1.125-1.12
						c-0.003-0.621,0.499-1.127,1.12-1.13c1.249-0.005,2.518,0.003,3.767,0.024c0.621,0.011,1.116,0.523,1.106,1.144
						C259.103,105.659,258.602,106.15,257.989,106.15z"/>
				</g>
				<g>
					<path style="fill:#7742C6;" d="M371.544,155.889c-0.306,0-0.611-0.124-0.833-0.369c-0.392-0.432-0.811-0.887-1.259-1.364
						c-0.425-0.453-0.402-1.165,0.052-1.59c0.453-0.425,1.165-0.402,1.59,0.051c0.456,0.486,0.884,0.951,1.283,1.391
						c0.418,0.46,0.383,1.172-0.077,1.589C372.084,155.792,371.814,155.889,371.544,155.889z"/>
				</g>
			</g>
			<g>
				<path style="fill:#7742C6;" d="M375.751,160.875c-0.345,0-0.685-0.158-0.905-0.456c-0.007-0.009-0.681-0.917-1.997-2.467
					c-0.402-0.474-0.344-1.184,0.13-1.586c0.473-0.402,1.183-0.344,1.586,0.129c1.37,1.614,2.062,2.546,2.09,2.585
					c0.369,0.499,0.264,1.204-0.235,1.573C376.218,160.803,375.983,160.875,375.751,160.875z"/>
			</g>
		</g>
		<g>
			<g>
				<path style="fill:#FB9001;" d="M162.635,111.808l-9.608,2.291c-1.094,0.261-1.77,1.36-1.509,2.454l6.139,25.749
					c0.405,1.7,2.112,2.749,3.812,2.344l33.691-8.033c1.028-0.245,1.663-1.278,1.418-2.306l-5.718-23.982
					c-0.212-0.891-1.107-1.44-1.997-1.228l-19.652,4.686L162.635,111.808z"/>
				<g>
					<path style="fill:#FBAE08;" d="M196.578,134.308l-3.971-16.655l-38.631,9.211l3.971,16.655
						c0.245,1.029,1.278,1.663,2.306,1.418l34.907-8.323C196.189,136.369,196.823,135.336,196.578,134.308z"/>
				</g>
				<g>
					<path style="fill:#FFFFFF;" d="M155.88,125.325l0.245,1.025l34.216-8.158l-0.245-1.025c-0.501-2.101-2.61-3.398-4.711-2.897
						l-26.609,6.344C156.676,121.116,155.379,123.225,155.88,125.325z"/>
					<g>
						<path style="opacity:0.6;fill:#D2C5E6;" d="M186.886,116.561l0.554,2.323l-1.501,0.358l-0.554-2.323
							c-0.098-0.413,0.159-0.831,0.572-0.929C186.37,115.891,186.788,116.149,186.886,116.561z"/>
						<path style="opacity:0.6;fill:#D2C5E6;" d="M183.5,117.369l0.554,2.323l-1.501,0.358l-0.554-2.323
							c-0.098-0.413,0.159-0.831,0.572-0.929C182.983,116.699,183.402,116.956,183.5,117.369z"/>
						<path style="opacity:0.6;fill:#D2C5E6;" d="M180.113,118.176l0.554,2.323l-1.501,0.358l-0.554-2.323
							c-0.098-0.413,0.159-0.831,0.572-0.93C179.597,117.506,180.015,117.763,180.113,118.176z"/>
						<path style="opacity:0.6;fill:#D2C5E6;" d="M176.727,118.984l0.554,2.323l-1.501,0.358l-0.554-2.323
							c-0.098-0.413,0.159-0.831,0.571-0.929C176.21,118.314,176.628,118.571,176.727,118.984z"/>
						<path style="opacity:0.6;fill:#D2C5E6;" d="M173.34,119.791l0.554,2.323l-1.501,0.358l-0.554-2.323
							c-0.098-0.413,0.159-0.831,0.572-0.929C172.824,119.121,173.242,119.378,173.34,119.791z"/>
						<path style="opacity:0.6;fill:#D2C5E6;" d="M169.954,120.599l0.554,2.323l-1.501,0.358l-0.554-2.323
							c-0.098-0.413,0.159-0.831,0.571-0.929C169.437,119.929,169.855,120.186,169.954,120.599z"/>
						<path style="opacity:0.6;fill:#D2C5E6;" d="M166.567,121.406l0.554,2.323l-1.501,0.358l-0.554-2.323
							c-0.098-0.413,0.159-0.831,0.571-0.929C166.051,120.736,166.469,120.993,166.567,121.406z"/>
						<path style="opacity:0.6;fill:#D2C5E6;" d="M163.181,122.214l0.554,2.323l-1.501,0.358l-0.554-2.323
							c-0.098-0.413,0.159-0.831,0.572-0.93C162.664,121.544,163.082,121.801,163.181,122.214z"/>
						<path style="opacity:0.6;fill:#D2C5E6;" d="M159.794,123.021l0.554,2.323l-1.501,0.358l-0.554-2.323
							c-0.098-0.413,0.159-0.831,0.572-0.929C159.278,122.351,159.696,122.608,159.794,123.021z"/>
					</g>
				</g>
			</g>
		</g>
		<g>
			<g>
				<path style="fill:#FB9001;" d="M333.503,107.915l-9.456-2.852c-1.077-0.325-2.214,0.285-2.539,1.362l-7.644,25.343
					c-0.505,1.673,0.443,3.439,2.116,3.943l33.16,10.002c1.012,0.305,2.08-0.268,2.386-1.28l7.12-23.604
					c0.264-0.877-0.232-1.802-1.108-2.066l-19.342-5.834L333.503,107.915z"/>
				<g>
					<path style="fill:#FBAE08;" d="M351.524,144.434l4.945-16.393l-38.022-11.469l-4.945,16.392
						c-0.305,1.012,0.268,2.08,1.28,2.386l34.357,10.363C350.151,146.019,351.219,145.446,351.524,144.434z"/>
				</g>
				<g>
					<path style="fill:#FFFFFF;" d="M320.866,116.201l-0.304,1.009l33.676,10.158l0.304-1.009c0.624-2.068-0.547-4.249-2.614-4.873
						l-26.189-7.9C323.671,112.963,321.49,114.133,320.866,116.201z"/>
					<g>
						<path style="opacity:0.6;fill:#D2C5E6;" d="M352.073,124.221l-0.69,2.286l-1.477-0.446l0.69-2.286
							c0.122-0.406,0.555-0.638,0.961-0.516C351.964,123.382,352.196,123.815,352.073,124.221z"/>
						<path style="opacity:0.6;fill:#D2C5E6;" d="M348.74,123.216l-0.69,2.286l-1.477-0.445l0.69-2.286
							c0.122-0.406,0.555-0.639,0.961-0.516C348.631,122.377,348.863,122.809,348.74,123.216z"/>
						<path style="opacity:0.6;fill:#D2C5E6;" d="M345.407,122.21l-0.69,2.287l-1.477-0.446l0.69-2.286
							c0.122-0.406,0.555-0.639,0.961-0.516C345.297,121.371,345.53,121.804,345.407,122.21z"/>
						<path style="opacity:0.6;fill:#D2C5E6;" d="M342.074,121.205l-0.69,2.286l-1.477-0.446l0.69-2.286
							c0.122-0.406,0.555-0.638,0.961-0.516C341.964,120.366,342.196,120.799,342.074,121.205z"/>
						<path style="opacity:0.6;fill:#D2C5E6;" d="M338.741,120.2l-0.69,2.286l-1.477-0.446l0.69-2.286
							c0.122-0.406,0.555-0.638,0.961-0.516C338.631,119.36,338.863,119.793,338.741,120.2z"/>
						<path style="opacity:0.6;fill:#D2C5E6;" d="M335.408,119.194l-0.69,2.286l-1.477-0.446l0.69-2.287
							c0.123-0.406,0.555-0.638,0.961-0.516C335.298,118.355,335.53,118.788,335.408,119.194z"/>
						<path style="opacity:0.6;fill:#D2C5E6;" d="M332.075,118.189l-0.69,2.286l-1.477-0.446l0.69-2.286
							c0.122-0.406,0.555-0.638,0.961-0.516C331.965,117.35,332.197,117.782,332.075,118.189z"/>
						<path style="opacity:0.6;fill:#D2C5E6;" d="M328.741,117.183l-0.69,2.287l-1.477-0.446l0.69-2.286
							c0.122-0.406,0.555-0.638,0.961-0.516C328.632,116.344,328.864,116.777,328.741,117.183z"/>
						<path style="opacity:0.6;fill:#D2C5E6;" d="M325.408,116.178l-0.69,2.286l-1.477-0.446l0.69-2.286
							c0.122-0.406,0.555-0.638,0.961-0.516C325.299,115.339,325.531,115.772,325.408,116.178z"/>
					</g>
				</g>
			</g>
		</g>
		<g>
			<g>
				<path style="fill:#FB9001;" d="M249.536,85.812l-9.877,0.034c-1.125,0.004-2.034,0.919-2.03,2.044l0.092,26.471
					c0.006,1.748,1.428,3.16,3.175,3.154l34.635-0.12c1.057-0.004,1.911-0.864,1.908-1.921l-0.085-24.654
					c-0.003-0.916-0.748-1.655-1.663-1.652l-20.203,0.07L249.536,85.812z"/>
				<g>
					<path style="fill:#FBAE08;" d="M277.439,115.474l-0.059-17.122l-39.714,0.138l0.059,17.122
						c0.004,1.057,0.864,1.911,1.921,1.908l35.885-0.124C276.588,117.391,277.442,116.531,277.439,115.474z"/>
				</g>
				<g>
					<path style="fill:#FFFFFF;" d="M239.871,97.427l0.004,1.054l35.175-0.122l-0.004-1.054c-0.008-2.16-1.764-3.904-3.924-3.897
						l-27.354,0.095C241.608,93.511,239.863,95.268,239.871,97.427z"/>
					<g>
						<path style="opacity:0.6;fill:#D2C5E6;" d="M272.06,95.982l0.008,2.388l-1.543,0.005l-0.008-2.388
							c-0.001-0.424,0.345-0.773,0.769-0.774C271.71,95.212,272.058,95.558,272.06,95.982z"/>
						<path style="opacity:0.6;fill:#D2C5E6;" d="M268.578,95.994l0.008,2.388l-1.543,0.005l-0.008-2.388
							c-0.001-0.424,0.344-0.773,0.769-0.774C268.229,95.224,268.577,95.57,268.578,95.994z"/>
						<path style="opacity:0.6;fill:#D2C5E6;" d="M265.097,96.006l0.008,2.388l-1.543,0.005l-0.008-2.388
							c-0.001-0.424,0.345-0.773,0.769-0.774C264.747,95.236,265.095,95.582,265.097,96.006z"/>
						<path style="opacity:0.6;fill:#D2C5E6;" d="M261.615,96.018l0.008,2.388l-1.543,0.005l-0.008-2.388
							c-0.001-0.424,0.345-0.773,0.769-0.774C261.266,95.248,261.614,95.594,261.615,96.018z"/>
						<path style="opacity:0.6;fill:#D2C5E6;" d="M258.134,96.03l0.008,2.388l-1.543,0.005l-0.008-2.388
							c-0.001-0.424,0.344-0.773,0.769-0.774C257.784,95.26,258.133,95.606,258.134,96.03z"/>
						<path style="opacity:0.6;fill:#D2C5E6;" d="M254.653,96.042l0.008,2.388l-1.543,0.005l-0.008-2.388
							c-0.002-0.424,0.344-0.773,0.769-0.774C254.303,95.272,254.651,95.618,254.653,96.042z"/>
						<path style="opacity:0.6;fill:#D2C5E6;" d="M251.171,96.054l0.008,2.388l-1.543,0.005l-0.008-2.388
							c-0.001-0.424,0.344-0.773,0.769-0.774C250.821,95.284,251.17,95.63,251.171,96.054z"/>
						<path style="opacity:0.6;fill:#D2C5E6;" d="M247.69,96.066l0.008,2.388l-1.543,0.005l-0.008-2.388
							c-0.001-0.424,0.345-0.773,0.769-0.774S247.688,95.642,247.69,96.066z"/>
						<path style="opacity:0.6;fill:#D2C5E6;" d="M244.208,96.078l0.008,2.388l-1.543,0.005l-0.008-2.388
							c-0.001-0.424,0.345-0.773,0.769-0.774C243.858,95.308,244.207,95.654,244.208,96.078z"/>
					</g>
				</g>
			</g>
		</g>
	</g>
	<g>
		<g>
			<g>
				<g>
					<g>
						<g>
							<path style="fill:#3B3E7D;" d="M63.261,171.694v241.3c0,7.564,6.13,13.694,13.694,13.694l120.163,0
								c3.8,0,7.236-1.546,9.718-4.044c2.457-2.477,3.976-5.886,3.976-9.65v-241.3c0-7.564-6.13-13.694-13.694-13.694H76.955
								c-2.236,0-4.347,0.535-6.212,1.487C66.3,161.75,63.261,166.366,63.261,171.694z"/>
						</g>
					</g>
					<g>
						<g>
							<path style="fill:#18285D;" d="M68.362,171.694v241.3c0,7.564,6.13,13.694,13.694,13.694l120.163,0
								c3.8,0,7.236-1.546,9.718-4.044c2.457-2.477,3.976-5.886,3.976-9.65v-241.3c0-7.564-6.13-13.694-13.694-13.694H82.056
								c-2.236,0-4.347,0.535-6.212,1.487C71.402,161.75,68.362,166.366,68.362,171.694z"/>
						</g>
					</g>
					<g>
						<g>
							<path style="fill:#18285D;" d="M65.765,217.346h-1.311c-2.09,0-3.784-1.694-3.784-3.784v-14.224
								c0-2.09,1.694-3.784,3.784-3.784h1.311V217.346z"/>
						</g>
					</g>
					<g>
						<g>
							<path style="fill:#18285D;" d="M65.765,245.846h-1.311c-2.09,0-3.784-1.694-3.784-3.784v-14.224
								c0-2.09,1.694-3.784,3.784-3.784h1.311V245.846z"/>
						</g>
					</g>
					<g>
						<g>
							<path style="fill:#18285D;" d="M215.913,217.346h1.027c1.638,0,2.965-1.327,2.965-2.965v-15.862
								c0-1.638-1.327-2.965-2.965-2.965h-1.027V217.346z"/>
						</g>
					</g>
					<g>
						<path style="fill:#FFFFFF;" d="M75.195,170.863V413.82c0,3.339,2.704,6.033,6.033,6.033h121.82
							c2.494,0,4.632-1.509,5.554-3.671c0.308-0.728,0.479-1.524,0.479-2.362V170.863c0-3.329-2.702-6.033-6.033-6.033H81.228
							c-0.396,0-0.783,0.037-1.156,0.11c-0.422,0.08-0.828,0.206-1.214,0.371c-1.86,0.804-3.241,2.509-3.58,4.561
							C75.222,170.195,75.195,170.526,75.195,170.863z"/>
					</g>
					<g>
						<g>
							<path style="fill:#E5DEF9;" d="M142.023,367.169h-8.609v28.074c0,3.663-2.969,6.633-6.633,6.633l0,0
								c-3.663,0-6.632-2.97-6.632-6.633v-28.074h-8.609l7.623-7.461l7.62-7.461l7.62,7.461L142.023,367.169z"/>
						</g>
						<g>
							<path style="fill:#E5DEF9;" d="M170.883,386.953h-8.609v-28.074c0-3.663-2.969-6.633-6.633-6.633l0,0
								c-3.663,0-6.632,2.97-6.632,6.633v28.074h-8.609l7.623,7.461l7.62,7.461l7.62-7.461L170.883,386.953z"/>
						</g>
					</g>
					<g>
						<g>
							<g>
								<g>
									<path style="fill:#E5DEF9;" d="M93.25,196.206L93.25,196.206c0,0.933,0.756,1.689,1.689,1.689h40.372
										c0.933,0,1.689-0.756,1.689-1.689v0c0-0.933-0.756-1.689-1.689-1.689H94.939C94.006,194.517,93.25,195.273,93.25,196.206z"
										/>
									<path style="fill:#E5DEF9;" d="M150.5,196.206L150.5,196.206c0,0.933,0.756,1.689,1.689,1.689h40.372
										c0.933,0,1.689-0.756,1.689-1.689v0c0-0.933-0.756-1.689-1.689-1.689h-40.372C151.256,194.517,150.5,195.273,150.5,196.206
										z"/>
								</g>
								<g>
									<path style="fill:#E5DEF9;" d="M93.25,205.622L93.25,205.622c0,0.933,0.756,1.689,1.689,1.689h40.372
										c0.933,0,1.689-0.756,1.689-1.689l0,0c0-0.933-0.756-1.689-1.689-1.689H94.939C94.006,203.933,93.25,204.69,93.25,205.622z
										"/>
									<path style="fill:#E5DEF9;" d="M150.5,205.622L150.5,205.622c0,0.933,0.756,1.689,1.689,1.689h40.372
										c0.933,0,1.689-0.756,1.689-1.689l0,0c0-0.933-0.756-1.689-1.689-1.689h-40.372
										C151.256,203.933,150.5,204.69,150.5,205.622z"/>
								</g>
								<g>
									<path style="fill:#E5DEF9;" d="M93.25,215.039L93.25,215.039c0,0.933,0.756,1.689,1.689,1.689h40.372
										c0.933,0,1.689-0.756,1.689-1.689l0,0c0-0.933-0.756-1.689-1.689-1.689H94.939C94.006,213.35,93.25,214.106,93.25,215.039z
										"/>
									<path style="fill:#E5DEF9;" d="M150.5,215.039L150.5,215.039c0,0.933,0.756,1.689,1.689,1.689h40.372
										c0.933,0,1.689-0.756,1.689-1.689l0,0c0-0.933-0.756-1.689-1.689-1.689h-40.372
										C151.256,213.35,150.5,214.106,150.5,215.039z"/>
								</g>
								<g>
									<path style="fill:#E5DEF9;" d="M93.25,224.456L93.25,224.456c0,0.933,0.756,1.689,1.689,1.689h40.372
										c0.933,0,1.689-0.756,1.689-1.689v0c0-0.933-0.756-1.689-1.689-1.689H94.939C94.006,222.767,93.25,223.523,93.25,224.456z"
										/>
									<path style="fill:#E5DEF9;" d="M150.5,224.456L150.5,224.456c0,0.933,0.756,1.689,1.689,1.689h40.372
										c0.933,0,1.689-0.756,1.689-1.689v0c0-0.933-0.756-1.689-1.689-1.689h-40.372C151.256,222.767,150.5,223.523,150.5,224.456
										z"/>
								</g>
							</g>
						</g>
						<g>
							<g>
								<path style="fill:#E5DEF9;" d="M94.988,322.456h55.968h2.666h38.889c0.96,0,1.738-0.756,1.738-1.689
									c0-0.933-0.778-1.689-1.738-1.689h-38.888c0,0,0,0-0.001,0H94.988c-0.96,0-1.738,0.756-1.738,1.689v0
									C93.25,321.699,94.028,322.456,94.988,322.456z"/>
								<path style="fill:#E5DEF9;" d="M192.512,328.495h-41.555c0,0,0,0,0,0H94.988c-0.96,0-1.738,0.756-1.738,1.689
									c0,0.933,0.778,1.689,1.738,1.689h55.968h10.088h31.467c0.96,0,1.738-0.756,1.738-1.689
									C194.25,329.251,193.472,328.495,192.512,328.495z"/>
								<path style="fill:#E5DEF9;" d="M192.512,337.911h-37.157h-4.398H94.988c-0.96,0-1.738,0.756-1.738,1.689l0,0
									c0,0.933,0.778,1.689,1.738,1.689h60.366c0,0,0,0,0,0h37.157c0.96,0,1.738-0.756,1.738-1.689l0,0
									C194.25,338.667,193.472,337.911,192.512,337.911z"/>
							</g>
						</g>
					</g>
					<g>
						<path style="fill:#E5DEF9;" d="M197.56,290.43c0,3.251-1.33,6.206-3.472,8.348c-2.143,2.142-5.098,3.472-8.348,3.472h-85.205
							c-6.501,0-11.82-5.319-11.82-11.82c0-1.379,0.241-2.709,0.68-3.94c0.596-1.675,1.561-3.177,2.793-4.408
							c1.591-1.591,3.63-2.733,5.905-3.216c0.645-18.745,16.046-33.747,34.949-33.747c12.367,0,23.237,6.422,29.452,16.115
							c1.739-0.552,3.59-0.847,5.516-0.847c0.596,0,1.182,0.03,1.758,0.084c9.24,0.886,16.465,8.668,16.465,18.139
							c0,0.005,0,0.005,0,0.01C192.507,278.88,197.56,284.096,197.56,290.43z"/>
						<path style="opacity:0.1;" d="M154.934,268.783c1.033,0,1.87,0.837,1.87,1.87v18.485c0,1.494-1.207,2.701-2.692,2.701h-23.52
							c-1.491,0-2.698-1.207-2.698-2.701v-20.355H154.934z"/>
						<g>
							<rect x="134.902" y="270.068" style="fill:#FB9001;" width="9.11" height="12.541"/>
							<g>
								<g>
									<g>
										<path style="fill:#18285D;" d="M133.287,265.315c0.109-3.39,2.894-6.117,6.31-6.117c3.416,0,6.201,2.726,6.31,6.117h3.675
											c-0.109-5.415-4.545-9.787-9.985-9.787c-5.441,0-9.876,4.372-9.986,9.787H133.287z"/>
									</g>
								</g>
								<g>
									<path style="fill:#FBAE08;" d="M151.357,264.675h-23.517c-1.493,0-2.7,1.207-2.7,2.699v17.792
										c0,1.493,1.207,2.699,2.7,2.699h23.517c1.488,0,2.695-1.207,2.695-2.699v-17.792
										C154.053,265.882,152.846,264.675,151.357,264.675z M141.693,281.255h-4.192l0.555-4.176
										c-0.73-0.498-1.211-1.333-1.211-2.284c0-1.517,1.236-2.753,2.753-2.753c1.521,0,2.752,1.236,2.752,2.753
										c0,0.95-0.481,1.786-1.211,2.284L141.693,281.255z"/>
								</g>
							</g>
						</g>
					</g>
					<g>
						<g>
							<path style="fill:#18285D;" d="M187.942,164.823l-6.212,9.452c-1.733,2.637-4.677,4.225-7.832,4.225h-60.037
								c-3.155,0-6.099-1.588-7.832-4.225l-6.212-9.452c0-0.979,0.801-1.783,1.783-1.783h84.56
								C187.138,163.041,187.942,163.844,187.942,164.823z"/>
						</g>
						<path style="opacity:0.3;fill:#E5DEF9;" d="M164.921,171.657h-51.606c-1,0-1.819-0.818-1.819-1.819v-0.164
							c0-1,0.819-1.819,1.819-1.819h51.606c1,0,1.819,0.818,1.819,1.819v0.164C166.74,170.839,165.921,171.657,164.921,171.657z"/>
						<path style="opacity:0.3;fill:#E5DEF9;" d="M176.824,169.63c0,1.26-1.021,2.281-2.281,2.281s-2.281-1.021-2.281-2.281
							s1.021-2.281,2.281-2.281S176.824,168.37,176.824,169.63z"/>
					</g>
				</g>
			</g>
		</g>
		<g>
			<g>
				<g>
					<g>
						<g>
							<path style="fill:#3B3E7D;" d="M444.564,171.694v241.3c0,7.564-6.13,13.694-13.694,13.694H310.708
								c-3.8,0-7.236-1.546-9.718-4.044c-2.457-2.477-3.976-5.886-3.976-9.65v-241.3c0-7.564,6.13-13.694,13.694-13.694H430.87
								c2.236,0,4.347,0.535,6.212,1.487C441.525,161.75,444.564,166.366,444.564,171.694z"/>
						</g>
					</g>
					<g>
						<g>
							<path style="fill:#18285D;" d="M439.463,171.694v241.3c0,7.564-6.13,13.694-13.694,13.694H305.606
								c-3.8,0-7.236-1.546-9.718-4.044c-2.457-2.477-3.976-5.886-3.976-9.65v-241.3c0-7.564,6.13-13.694,13.694-13.694h120.163
								c2.236,0,4.347,0.535,6.212,1.487C436.423,161.75,439.463,166.366,439.463,171.694z"/>
						</g>
					</g>
					<g>
						<g>
							<path style="fill:#18285D;" d="M442.06,217.346h1.311c2.09,0,3.784-1.694,3.784-3.784v-14.224
								c0-2.09-1.694-3.784-3.784-3.784h-1.311V217.346z"/>
						</g>
					</g>
					<g>
						<g>
							<path style="fill:#18285D;" d="M291.912,217.346h-1.027c-1.638,0-2.965-1.327-2.965-2.965v-15.862
								c0-1.638,1.327-2.965,2.965-2.965h1.027V217.346z"/>
						</g>
					</g>
					<g>
						<g>
							<path style="fill:#18285D;" d="M291.912,245.596h-1.027c-1.638,0-2.965-1.327-2.965-2.965v-15.862
								c0-1.638,1.327-2.965,2.965-2.965h1.027V245.596z"/>
						</g>
					</g>
					<g>
						<path style="fill:#FFFFFF;" d="M432.63,170.863V413.82c0,3.339-2.704,6.033-6.033,6.033h-121.82
							c-2.494,0-4.632-1.509-5.554-3.671c-0.308-0.728-0.479-1.524-0.479-2.362V170.863c0-3.329,2.702-6.033,6.033-6.033h121.82
							c0.396,0,0.783,0.037,1.156,0.11c0.422,0.08,0.828,0.206,1.214,0.371c1.86,0.804,3.241,2.509,3.581,4.561
							C432.603,170.195,432.63,170.526,432.63,170.863z"/>
					</g>
					<g>
						<g>
							<g>
								<g>
									<path style="fill:#E5DEF9;" d="M315.25,196.206L315.25,196.206c0,0.933,0.756,1.689,1.689,1.689h40.372
										c0.933,0,1.689-0.756,1.689-1.689v0c0-0.933-0.756-1.689-1.689-1.689h-40.372
										C316.006,194.517,315.25,195.273,315.25,196.206z"/>
									<path style="fill:#E5DEF9;" d="M372.5,196.206L372.5,196.206c0,0.933,0.756,1.689,1.689,1.689h40.372
										c0.933,0,1.689-0.756,1.689-1.689v0c0-0.933-0.756-1.689-1.689-1.689h-40.372C373.256,194.517,372.5,195.273,372.5,196.206
										z"/>
								</g>
								<g>
									<path style="fill:#E5DEF9;" d="M315.25,205.622L315.25,205.622c0,0.933,0.756,1.689,1.689,1.689h40.372
										c0.933,0,1.689-0.756,1.689-1.689l0,0c0-0.933-0.756-1.689-1.689-1.689h-40.372
										C316.006,203.933,315.25,204.69,315.25,205.622z"/>
									<path style="fill:#E5DEF9;" d="M372.5,205.622L372.5,205.622c0,0.933,0.756,1.689,1.689,1.689h40.372
										c0.933,0,1.689-0.756,1.689-1.689l0,0c0-0.933-0.756-1.689-1.689-1.689h-40.372
										C373.256,203.933,372.5,204.69,372.5,205.622z"/>
								</g>
								<g>
									<path style="fill:#E5DEF9;" d="M315.25,215.039L315.25,215.039c0,0.933,0.756,1.689,1.689,1.689h40.372
										c0.933,0,1.689-0.756,1.689-1.689l0,0c0-0.933-0.756-1.689-1.689-1.689h-40.372
										C316.006,213.35,315.25,214.106,315.25,215.039z"/>
									<path style="fill:#E5DEF9;" d="M372.5,215.039L372.5,215.039c0,0.933,0.756,1.689,1.689,1.689h40.372
										c0.933,0,1.689-0.756,1.689-1.689l0,0c0-0.933-0.756-1.689-1.689-1.689h-40.372
										C373.256,213.35,372.5,214.106,372.5,215.039z"/>
								</g>
								<g>
									<path style="fill:#E5DEF9;" d="M315.25,224.456L315.25,224.456c0,0.933,0.756,1.689,1.689,1.689h40.372
										c0.933,0,1.689-0.756,1.689-1.689v0c0-0.933-0.756-1.689-1.689-1.689h-40.372
										C316.006,222.767,315.25,223.523,315.25,224.456z"/>
									<path style="fill:#E5DEF9;" d="M372.5,224.456L372.5,224.456c0,0.933,0.756,1.689,1.689,1.689h40.372
										c0.933,0,1.689-0.756,1.689-1.689v0c0-0.933-0.756-1.689-1.689-1.689h-40.372C373.256,222.767,372.5,223.523,372.5,224.456
										z"/>
								</g>
							</g>
						</g>
						<g>
							<g>
								<path style="fill:#E5DEF9;" d="M316.988,367.645h55.968h2.666h38.889c0.96,0,1.738-0.756,1.738-1.689
									c0-0.933-0.778-1.689-1.738-1.689h-38.888c0,0,0,0,0,0h-58.634c-0.96,0-1.738,0.756-1.738,1.689v0
									C315.25,366.888,316.028,367.645,316.988,367.645z"/>
								<path style="fill:#E5DEF9;" d="M414.512,373.683h-41.555c0,0,0,0,0,0h-55.968c-0.96,0-1.738,0.756-1.738,1.689
									c0,0.933,0.778,1.689,1.738,1.689h55.968h10.088h31.467c0.96,0,1.738-0.756,1.738-1.689
									C416.25,374.44,415.472,373.683,414.512,373.683z"/>
								<path style="fill:#E5DEF9;" d="M414.512,383.1h-37.157h-4.398h-55.968c-0.96,0-1.738,0.756-1.738,1.689l0,0
									c0,0.933,0.778,1.689,1.738,1.689h60.366c0,0,0,0,0,0h37.157c0.96,0,1.738-0.756,1.738-1.689l0,0
									C416.25,383.856,415.472,383.1,414.512,383.1z"/>
								<path style="fill:#E5DEF9;" d="M414.512,392.517h-38.888c0,0,0,0,0,0h-58.634c-0.96,0-1.738,0.756-1.738,1.689v0
									c0,0.933,0.778,1.689,1.738,1.689h55.968h2.666h38.889c0.96,0,1.738-0.756,1.738-1.689
									C416.25,393.273,415.472,392.517,414.512,392.517z"/>
							</g>
						</g>
					</g>
					<g>
						<g>
							<g>
								<path style="fill:#E5DEF9;" d="M396.623,346.75h-49.887c-2.572,0-4.677-2.105-4.677-4.677v-82.005
									c0-2.572,2.105-4.677,4.677-4.677h49.887c2.572,0,4.677,2.105,4.677,4.677v82.005
									C401.3,344.645,399.195,346.75,396.623,346.75z"/>
								<g>
									<path style="fill:#C8C1E6;" d="M350.309,264.873L350.309,264.873c0-0.929,0.696-1.689,1.547-1.689h41.66
										c0.851,0,1.547,0.76,1.547,1.689l0,0c0,0.929-0.696,1.689-1.547,1.689h-41.66
										C351.005,266.562,350.309,265.802,350.309,264.873z"/>
									<path style="fill:#C8C1E6;" d="M350.309,272.928L350.309,272.928c0-0.929,0.696-1.689,1.547-1.689h41.66
										c0.851,0,1.547,0.76,1.547,1.689l0,0c0,0.929-0.696,1.689-1.547,1.689h-41.66
										C351.005,274.616,350.309,273.857,350.309,272.928z"/>
									<path style="fill:#C8C1E6;" d="M350.309,280.982L350.309,280.982c0-0.929,0.696-1.689,1.547-1.689h41.66
										c0.851,0,1.547,0.76,1.547,1.689l0,0c0,0.929-0.696,1.689-1.547,1.689h-41.66
										C351.005,282.671,350.309,281.911,350.309,280.982z"/>
									<path style="fill:#C8C1E6;" d="M350.309,289.037L350.309,289.037c0-0.929,0.696-1.689,1.547-1.689h41.66
										c0.851,0,1.547,0.76,1.547,1.689v0c0,0.929-0.696,1.689-1.547,1.689h-41.66
										C351.005,290.726,350.309,289.966,350.309,289.037z"/>
									<path style="fill:#C8C1E6;" d="M350.309,297.092L350.309,297.092c0-0.929,0.696-1.689,1.547-1.689h41.66
										c0.851,0,1.547,0.76,1.547,1.689l0,0c0,0.929-0.696,1.689-1.547,1.689h-41.66
										C351.005,298.78,350.309,298.021,350.309,297.092z"/>
									<path style="fill:#C8C1E6;" d="M350.309,305.146L350.309,305.146c0-0.929,0.696-1.689,1.547-1.689h41.66
										c0.851,0,1.547,0.76,1.547,1.689l0,0c0,0.929-0.696,1.689-1.547,1.689h-41.66
										C351.005,306.835,350.309,306.075,350.309,305.146z"/>
									<path style="fill:#C8C1E6;" d="M350.309,313.201L350.309,313.201c0-0.929,0.696-1.689,1.547-1.689h41.66
										c0.851,0,1.547,0.76,1.547,1.689l0,0c0,0.929-0.696,1.689-1.547,1.689h-41.66
										C351.005,314.89,350.309,314.13,350.309,313.201z"/>
									<path style="fill:#C8C1E6;" d="M350.309,321.256L350.309,321.256c0-0.929,0.696-1.689,1.547-1.689h41.66
										c0.851,0,1.547,0.76,1.547,1.689l0,0c0,0.929-0.696,1.689-1.547,1.689h-41.66
										C351.005,322.944,350.309,322.185,350.309,321.256z"/>
									<path style="fill:#C8C1E6;" d="M350.309,329.31L350.309,329.31c0-0.929,0.696-1.689,1.547-1.689h41.66
										c0.851,0,1.547,0.76,1.547,1.689l0,0c0,0.929-0.696,1.689-1.547,1.689h-41.66
										C351.005,330.999,350.309,330.239,350.309,329.31z"/>
									<path style="fill:#C8C1E6;" d="M350.309,337.365L350.309,337.365c0-0.929,0.696-1.689,1.547-1.689h41.66
										c0.851,0,1.547,0.76,1.547,1.689l0,0c0,0.929-0.696,1.689-1.547,1.689h-41.66
										C351.005,339.054,350.309,338.294,350.309,337.365z"/>
								</g>
								<path style="opacity:0.5;fill:#C8C1E6;" d="M390.582,346.75h-43.846c-2.572,0-4.677-2.105-4.677-4.677v-82.005
									c0-2.572,2.105-4.677,4.677-4.677h43.846V346.75z"/>
							</g>
							<g>
								<path style="fill:#E5DEF9;" d="M383.88,254.401v82.004c0,2.571-2.107,4.678-4.677,4.678h-49.889
									c-2.571,0-4.677-2.107-4.677-4.678v-82.004c0-2.575,2.107-4.677,4.677-4.677h49.889
									C381.774,249.724,383.88,251.826,383.88,254.401z"/>
								<g>
									<path style="fill:#C8C1E6;" d="M332.888,259.206L332.888,259.206c0-0.929,0.696-1.689,1.548-1.689h41.661
										c0.851,0,1.547,0.76,1.547,1.689l0,0c0,0.929-0.696,1.689-1.547,1.689h-41.661
										C333.584,260.894,332.888,260.134,332.888,259.206z"/>
									<path style="fill:#C8C1E6;" d="M332.888,267.26L332.888,267.26c0-0.929,0.696-1.689,1.548-1.689h41.661
										c0.851,0,1.547,0.76,1.547,1.689l0,0c0,0.929-0.696,1.689-1.547,1.689h-41.661
										C333.584,268.949,332.888,268.189,332.888,267.26z"/>
									<path style="fill:#C8C1E6;" d="M332.888,275.315L332.888,275.315c0-0.929,0.696-1.689,1.548-1.689h41.661
										c0.851,0,1.547,0.76,1.547,1.689l0,0c0,0.929-0.696,1.689-1.547,1.689h-41.661
										C333.584,277.004,332.888,276.244,332.888,275.315z"/>
									<path style="fill:#C8C1E6;" d="M332.888,283.37L332.888,283.37c0-0.929,0.696-1.689,1.548-1.689h41.661
										c0.851,0,1.547,0.76,1.547,1.689l0,0c0,0.929-0.696,1.689-1.547,1.689h-41.661
										C333.584,285.058,332.888,284.298,332.888,283.37z"/>
									<path style="fill:#C8C1E6;" d="M332.888,291.424L332.888,291.424c0-0.929,0.696-1.689,1.548-1.689h41.661
										c0.851,0,1.547,0.76,1.547,1.689l0,0c0,0.929-0.696,1.689-1.547,1.689h-41.661
										C333.584,293.113,332.888,292.353,332.888,291.424z"/>
									<path style="fill:#C8C1E6;" d="M332.888,299.479L332.888,299.479c0-0.929,0.696-1.689,1.548-1.689h41.661
										c0.851,0,1.547,0.76,1.547,1.689l0,0c0,0.929-0.696,1.689-1.547,1.689h-41.661
										C333.584,301.168,332.888,300.408,332.888,299.479z"/>
									<path style="fill:#C8C1E6;" d="M332.888,307.534L332.888,307.534c0-0.929,0.696-1.689,1.548-1.689h41.661
										c0.851,0,1.547,0.76,1.547,1.689l0,0c0,0.929-0.696,1.689-1.547,1.689h-41.661
										C333.584,309.222,332.888,308.462,332.888,307.534z"/>
									<path style="fill:#C8C1E6;" d="M332.888,315.588L332.888,315.588c0-0.929,0.696-1.689,1.548-1.689h41.661
										c0.851,0,1.547,0.76,1.547,1.689l0,0c0,0.929-0.696,1.689-1.547,1.689h-41.661
										C333.584,317.277,332.888,316.517,332.888,315.588z"/>
									<path style="fill:#C8C1E6;" d="M332.888,323.643L332.888,323.643c0-0.929,0.696-1.689,1.548-1.689h41.661
										c0.851,0,1.547,0.76,1.547,1.689l0,0c0,0.929-0.696,1.689-1.547,1.689h-41.661
										C333.584,325.332,332.888,324.572,332.888,323.643z"/>
									<path style="fill:#C8C1E6;" d="M332.888,331.698L332.888,331.698c0-0.929,0.696-1.689,1.548-1.689h41.661
										c0.851,0,1.547,0.76,1.547,1.689l0,0c0,0.929-0.696,1.689-1.547,1.689h-41.661
										C333.584,333.386,332.888,332.626,332.888,331.698z"/>
								</g>
							</g>
							<path style="opacity:0.2;" d="M329.024,249.724v18.681c0,1.699,1.372,3.071,3.067,3.071h26.74
								c1.691,0,3.063-1.372,3.063-3.071v-18.681H329.024z"/>
							<g>
								<rect x="336.991" y="246.72" style="fill:#FB9001;" width="10.358" height="14.259"/>
								<g>
									<g>
										<g>
											<path style="fill:#18285D;" d="M335.155,241.316c0.124-3.855,3.29-6.955,7.175-6.955c3.885,0,7.051,3.1,7.175,6.955
												h4.179c-0.124-6.157-5.168-11.128-11.354-11.128c-6.186,0-11.229,4.971-11.354,11.128H335.155z"/>
										</g>
									</g>
									<g>
										<path style="fill:#FBAE08;" d="M355.701,240.588h-26.739c-1.697,0-3.069,1.372-3.069,3.069v20.229
											c0,1.697,1.372,3.069,3.069,3.069h26.739c1.692,0,3.065-1.372,3.065-3.069v-20.229
											C358.766,241.96,357.394,240.588,355.701,240.588z M344.713,259.44h-4.766l0.631-4.748
											c-0.83-0.566-1.377-1.516-1.377-2.596c0-1.725,1.405-3.13,3.13-3.13c1.729,0,3.13,1.405,3.13,3.13
											c0,1.08-0.547,2.031-1.377,2.596L344.713,259.44z"/>
									</g>
								</g>
							</g>
						</g>
					</g>
					<g>
						<g>
							<path style="fill:#18285D;" d="M319.883,164.823l6.212,9.452c1.733,2.637,4.677,4.225,7.832,4.225h60.037
								c3.155,0,6.099-1.588,7.832-4.225l6.212-9.452c0-0.979-0.801-1.783-1.783-1.783h-84.56
								C320.687,163.041,319.883,163.844,319.883,164.823z"/>
						</g>
						<path style="opacity:0.3;fill:#E5DEF9;" d="M342.904,171.657h51.606c1,0,1.819-0.818,1.819-1.819v-0.164
							c0-1-0.818-1.819-1.819-1.819h-51.606c-1,0-1.819,0.818-1.819,1.819v0.164C341.085,170.839,341.904,171.657,342.904,171.657z"
							/>
						<circle style="opacity:0.3;fill:#E5DEF9;" cx="333.281" cy="169.63" r="2.281"/>
					</g>
				</g>
			</g>
		</g>
	</g>
	<g>
		<g>
			<g>
				<path style="fill:#F9A38F;" d="M280.544,391.609l6.039,8.078c0,0-1.103,3.611-5.575,6.394l-7.224-9.295L280.544,391.609z"/>
				<g>
					<path style="fill:#7742C6;" d="M282.01,403.579c0,0-2.826-0.609-3.792,0.368c-0.966,0.977-3.392,14.267-5.663,17.174
						s0.015,4.452,1.413,5.041c1.397,0.589,21.417-19.411,21.417-19.411s-4.949-6.837-7.335-8.165
						C285.663,397.259,284.544,402.172,282.01,403.579z"/>
				</g>
			</g>
			<g>
				<path style="fill:#F9A38F;" d="M243.499,405.48l-0.916,10.044c0,0-3.236,1.946-8.422,1.023l0.85-11.741L243.499,405.48z"/>
				<g>
					<path style="fill:#7742C6;" d="M235.991,415.136c0,0-1.767-2.446-3.199-2.362c-1.432,0.083-12.595,8.699-16.387,9.37
						c-3.792,0.67-3.097,3.465-2.425,4.898c0.673,1.433,30.026,0.611,30.026,0.611s1.082-9.475,0.157-12.172
						C243.239,412.783,238.939,415.813,235.991,415.136z"/>
				</g>
			</g>
			<g>
				<g>
					<path style="fill:#0E0C46;" d="M249.127,296.449l6.1,50.486c0,0,5.473,7.426,10.69,16.928
						c4.379,7.975,16.046,28.669,16.046,28.669l-7.056,5.38l-38.65-40.052l-10.289-61.902L249.127,296.449z"/>
				</g>
				<g>
					<path style="fill:#18285D;" d="M273.167,397.782c0.635,1.592,1.819,2.676,3.203,3.585l8.194-6.92
						c-0.687-1.453-1.628-2.709-2.792-3.79L273.167,397.782z"/>
				</g>
			</g>
			<g>
				<g>
					<path style="fill:#18285D;" d="M280.341,298.536c0,0-10.884,26.76-25.029,47.627c0,0-2.112,20.308-5.725,31.119
						c-1.582,4.734-4.646,27.161-4.646,27.161l-10.73-0.487l2.769-62.357l11.352-45.165L280.341,298.536z"/>
				</g>
				<g>
					<path style="fill:#3B3E7D;" d="M233.212,403.587c-0.681,1.865-0.494,3.715,0,5.569l12.419,0.347
						c0.528-1.785,0.685-3.596,0.514-5.429L233.212,403.587z"/>
				</g>
			</g>
			<g>
				<path style="fill:#5C17AE;" d="M227.825,203.405l-14.148,22.799h12.865C226.542,226.204,229.013,211.875,227.825,203.405z"/>
				<g>
					<g>
						<g>
							<path style="fill:#7742C6;" d="M224.352,295.062c0,2.194,0.005,3.935,0.021,5.109c5.198,1.4,10.394,2.414,15.589,3.036
								c0.136,0.016,0.275,0.034,0.414,0.05c0.233,0.029,0.462,0.055,0.692,0.081c0.058,0.005,0.113,0.011,0.173,0.016
								c0.902,0.1,1.798,0.186,2.703,0.259c4.467,0.367,8.934,0.448,13.401,0.241c0.393-0.018,0.781-0.039,1.174-0.063
								c0.349-0.018,0.703-0.039,1.056-0.066c0.157-0.008,0.317-0.018,0.477-0.031c0.299-0.021,0.593-0.044,0.891-0.066
								c6.564-0.532,13.128-1.68,19.689-3.457c0.034-2.585,0.066-7.851,0.076-14.643c0-0.372,0.003-0.75,0-1.133
								c0.008-7.492-0.021-16.688-0.11-26.156c-0.008-0.75-0.016-1.497-0.026-2.249c-0.008-0.868-0.016-1.741-0.026-2.616
								c-0.003-0.147-0.003-0.296-0.005-0.443c-0.005-0.204-0.008-0.409-0.01-0.616c-0.003-0.412-0.008-0.826-0.016-1.234
								c-0.008-0.6-0.016-1.198-0.026-1.793c-0.005-0.454-0.013-0.907-0.018-1.36c-0.013-0.902-0.029-1.804-0.042-2.7
								c-0.317-18.798-0.952-36.073-2.16-40.469c-0.113-0.406-0.231-0.703-0.349-0.878c-0.129-0.197-0.288-0.393-0.467-0.598
								c-0.225-0.257-0.488-0.522-0.781-0.789c-2.013-1.853-5.505-4.005-9.046-6.048c-0.411-0.239-0.828-0.475-1.237-0.71
								c-0.063-0.034-9.623-3.258-9.683-3.295l-10,0.7c-1.2,0.705-10.661,3.922-11.823,4.645c-0.343,0.215-0.681,0.43-1.014,0.642
								c-2.721,1.754-5.033,3.497-6.042,4.978c-1.455,2.139-2.336,21.331-2.844,42.21c-0.013,0.482-0.024,0.962-0.037,1.442
								c-0.052,2.21-0.1,4.43-0.144,6.65c-0.045,2.192-0.084,4.378-0.121,6.548c-0.058,3.552-0.11,7.049-0.152,10.417
								c-0.005,0.383-0.008,0.763-0.013,1.143c-0.039,3.285-0.071,6.433-0.094,9.374c-0.003,0.385-0.005,0.766-0.008,1.143
								c-0.034,4.414-0.055,8.323-0.058,11.461v0.003C224.352,294.236,224.352,294.653,224.352,295.062z"/>
						</g>
					</g>
				</g>
				<path style="fill:#5C17AE;" d="M242.728,222.302l-11.453-0.665c0,0-0.428,13.901,5.667,13.473
					C243.038,234.682,242.728,222.302,242.728,222.302z"/>
				<g>
					<path style="fill:#5C17AE;" d="M268.665,283.79c0,0-0.001,0-0.002,0c-10.799-0.047-20.016-4.961-25.847-9.075
						c-6.306-4.449-10.128-8.958-10.166-9.003c-0.184-0.22-0.156-0.548,0.063-0.732c0.22-0.185,0.547-0.156,0.732,0.063
						c0.037,0.044,3.789,4.467,9.993,8.839c5.704,4.021,14.711,8.823,25.229,8.869c0.287,0.001,0.519,0.235,0.517,0.522
						C269.184,283.56,268.951,283.79,268.665,283.79z"/>
				</g>
				<g>
					<path style="fill:#5C17AE;" d="M257.411,287.46c-9.371,0-18.715-5.34-19.14-5.586c-0.248-0.144-0.333-0.461-0.189-0.71
						c0.144-0.248,0.462-0.332,0.71-0.19c0.11,0.063,11.105,6.343,20.854,5.334c0.289-0.033,0.541,0.178,0.57,0.463
						c0.03,0.285-0.178,0.541-0.463,0.57C258.976,287.422,258.193,287.46,257.411,287.46z"/>
				</g>
				<g>
					<polygon style="fill:#FFFFFF;" points="242.179,270.466 247.103,285.652 253.964,272.059 252.327,212.698 252.263,210.462 
						249.594,210.086 249.224,213.099 					"/>
					<polygon style="fill:#EDEDED;" points="249.224,213.099 250.508,214.697 252.327,212.698 252.263,210.462 249.594,210.086 
											"/>
					<polygon style="fill:#FFFFFF;" points="255.685,207.306 250.453,212.427 247.066,206.102 250.453,200.328 					"/>
				</g>
				<path style="fill:#5C17AE;" d="M258.193,191.884l1.505,1.072c0.414,0.295,0.818,0.604,1.198,0.94
					c1.147,1.013,1.554,1.713,1.254,3.499c-0.046,0.275-0.106,0.515-0.173,0.704l0,0l-2.863,13.778l-8.662-11.55
					C250.453,200.328,256.738,198.091,258.193,191.884z"/>
				<path style="fill:#5C17AE;" d="M246.769,192.44c0,0-3.972,3.76-2.805,8.247l1.81,7.619l4.678-7.977
					C250.453,200.328,247.101,198.294,246.769,192.44z"/>
			</g>
			<g>
				<g>
					<path style="fill:#FB9001;" d="M208.113,212.403l-24.604-1.994c-2.803-0.227-5.259,1.861-5.486,4.663l-5.344,65.941
						c-0.353,4.353,2.89,8.169,7.244,8.522l86.278,6.993c2.634,0.213,4.942-1.749,5.155-4.382l4.978-61.415
						c0.185-2.281-1.514-4.28-3.795-4.464l-50.327-4.079L208.113,212.403z"/>
					<g>
						<path style="fill:#FBAE08;" d="M271.356,292.146l3.457-42.652l-98.93-8.018l-3.457,42.652
							c-0.214,2.634,1.749,4.942,4.382,5.155l89.393,7.245C268.834,296.741,271.142,294.78,271.356,292.146z"/>
					</g>
					<g>
						<path style="fill:#FFFFFF;" d="M181.855,236.111l-0.471,5.81l87.623,7.102l0.471-5.81c0.293-3.621-2.404-6.795-6.026-7.088
							l-74.509-6.039C185.322,229.792,182.149,232.49,181.855,236.111z"/>
						<g>
							<path style="opacity:0.6;fill:#D2C5E6;" d="M262.063,242.472l-0.482,5.949l-3.843-0.312l0.482-5.949
								c0.086-1.057,1.021-1.852,2.078-1.766C261.354,240.48,262.149,241.415,262.063,242.472z"/>
							<path style="opacity:0.6;fill:#D2C5E6;" d="M253.391,241.769l-0.482,5.949l-3.844-0.312l0.482-5.949
								c0.086-1.057,1.02-1.852,2.077-1.766C252.682,239.777,253.477,240.712,253.391,241.769z"/>
							<path style="opacity:0.6;fill:#D2C5E6;" d="M244.718,241.066l-0.482,5.949l-3.844-0.311l0.482-5.949
								c0.086-1.057,1.02-1.852,2.077-1.766C244.009,239.074,244.804,240.009,244.718,241.066z"/>
							<path style="opacity:0.6;fill:#D2C5E6;" d="M236.046,240.363l-0.482,5.949l-3.844-0.311l0.482-5.949
								c0.086-1.057,1.021-1.852,2.077-1.766C235.337,238.371,236.131,239.306,236.046,240.363z"/>
							<path style="opacity:0.6;fill:#D2C5E6;" d="M227.373,239.66l-0.482,5.949l-3.844-0.312l0.482-5.949
								c0.086-1.057,1.02-1.852,2.078-1.766C226.664,237.668,227.459,238.603,227.373,239.66z"/>
							<path style="opacity:0.6;fill:#D2C5E6;" d="M218.701,238.957l-0.482,5.949l-3.844-0.311l0.482-5.949
								c0.086-1.057,1.02-1.852,2.077-1.766C217.992,236.965,218.786,237.9,218.701,238.957z"/>
							<path style="opacity:0.6;fill:#D2C5E6;" d="M210.028,238.255l-0.482,5.949l-3.844-0.311l0.482-5.949
								c0.086-1.057,1.021-1.852,2.077-1.766C209.319,236.262,210.114,237.197,210.028,238.255z"/>
							<path style="opacity:0.6;fill:#D2C5E6;" d="M201.356,237.552l-0.482,5.949l-3.844-0.312l0.482-5.949
								c0.086-1.057,1.021-1.852,2.078-1.766C200.647,235.56,201.441,236.495,201.356,237.552z"/>
							<path style="opacity:0.6;fill:#D2C5E6;" d="M192.683,236.849l-0.482,5.949l-3.844-0.311l0.482-5.949
								c0.086-1.057,1.021-1.852,2.078-1.766C191.974,234.857,192.769,235.792,192.683,236.849z"/>
						</g>
					</g>
				</g>
			</g>
			<g>
				<path style="fill:#F9856B;" d="M190.376,290.728l-1.24,1.863c0,0-4.191,0.214-4.799-1.478c-0.221-0.619-0.157-1.332,0.321-1.688
					L190.376,290.728z"/>
				<path style="fill:#F9A38F;" d="M194.265,296.134c-2.007,0.513-4.169-0.23-5.323-1.951c-0.613-0.914-0.981-2.137-0.706-3.749
					c0.824-4.836,3.024-8.439,4.945-7.693c0.722,0.281,0.93,3.052,0.255,5.158c0,0,1.059-2.318,1.392-4.89
					c0.332-2.572,3.567-1.747,3.171,1.491c-0.396,3.238-0.681,3.738-0.681,3.738s1.14-2.561,1.146-4.138
					c0.007-1.577,2.499-1.45,2.341,1.645c-0.074,1.435-0.168,3.08-0.168,3.08s0.458-2.086,0.705-3.168
					c0.247-1.082,1.595-1.904,2.083,0.34c0.384,1.766,1.094,6.609-1.21,7.706C200.649,294.448,196.656,295.523,194.265,296.134z"/>
			</g>
			<g>
				<path style="fill:#F9A38F;" d="M231.794,294.836c0.036-1.639,3.567-1.231,5.386-2.043c1.819-0.815,6.141-3.673,5.449-4.564
					c-0.692-0.892-1.806-1.602-2.537-2.19c-0.732-0.585-1.182-2.145-0.318-2.246c0.867-0.099,3.49,1.354,4.531,2.313
					c0.368,0.344,1.013,1.419,1.446,1.99c0.678,0.902,1.557,1.524,2.561,1.718c1.021-0.886,2.126-1.892,2.826-2.359
					c1.442,0.215,6.072,4.08,4.688,6.841c-1.415,1.627-3.499,3.446-3.499,3.446c-7.374,5.617-11.361,4.964-13.007,4.786
					c-1.65-0.177-1.818-1.972-1.818-1.972c-1.484-0.496-1.368-1.955-1.368-1.955c-2.299-0.798-1.826-2.354-1.826-2.354
					S231.758,296.476,231.794,294.836z"/>
				<g>
					<path style="fill:#5C17AE;" d="M277.991,203.93c0,0,13.079,25.554,6.977,63.988c0,0-7.56,17.659-28.137,26.68L250.556,288
						c0,0,14.95-9.812,22.613-25.636l-3.066-46.466C270.102,215.898,271.186,210.749,277.991,203.93z"/>
				</g>
			</g>
			<g>
				<g>
					<path style="fill:#18285D;" d="M238.161,163.748c0,0-5.997-2.093-5.398-6.757c0.51-3.969,4.914-1.396,4.527-4.498
						c-0.387-3.102-1.247-5.923,2.543-6.698c3.316-0.678,3.372,1.728,7.726-1.763c5.144-4.123,9.096,5.424,13.687,5.711
						c6.772,0.423,7.627,4.477,8.293,7.721c0.666,3.243-2.609,7.051-2.609,7.051L238.161,163.748z"/>
				</g>
				<g>
					<path style="fill:#F9856B;" d="M239.166,170.562c0,0-2.517-3.355-4.388-0.581c-1.871,2.775,0.774,10.97,5.356,8.97
						L239.166,170.562z"/>
					<g>
						<path style="fill:#D9564C;" d="M239.134,176.418c-0.169,0-0.325-0.112-0.373-0.283c-0.71-2.53-3.331-3.556-3.358-3.566
							c-0.199-0.076-0.3-0.3-0.224-0.499c0.076-0.2,0.299-0.3,0.499-0.225c0.122,0.046,3.011,1.167,3.829,4.081
							c0.058,0.206-0.063,0.419-0.268,0.477C239.203,176.413,239.168,176.418,239.134,176.418z"/>
					</g>
					<g>
						<path style="fill:#D9564C;" d="M236.488,175.144c-0.072,0-0.145-0.02-0.21-0.062c-0.18-0.116-0.231-0.355-0.116-0.535
							c0.019-0.03,0.483-0.737,1.453-1.171c0.194-0.088,0.424,0,0.511,0.195c0.087,0.195,0,0.424-0.195,0.511
							c-0.75,0.336-1.115,0.879-1.118,0.884C236.739,175.081,236.615,175.144,236.488,175.144z"/>
					</g>
				</g>
				<g>
					<path style="fill:#F9856B;" d="M265.101,170.562c0,0,2.517-3.355,4.388-0.581c1.871,2.775-0.774,10.97-5.356,8.97
						L265.101,170.562z"/>
					<g>
						<g>
							<path style="fill:#D9564C;" d="M265.134,176.418c0.169,0,0.325-0.112,0.373-0.283c0.71-2.53,3.331-3.556,3.358-3.566
								c0.2-0.076,0.3-0.3,0.224-0.499c-0.076-0.2-0.299-0.3-0.498-0.225c-0.123,0.046-3.011,1.167-3.829,4.081
								c-0.058,0.206,0.062,0.419,0.268,0.477C265.064,176.413,265.099,176.418,265.134,176.418z"/>
						</g>
					</g>
					<g>
						<path style="fill:#D9564C;" d="M267.78,175.144c0.072,0,0.144-0.02,0.209-0.062c0.18-0.116,0.232-0.355,0.116-0.535
							c-0.019-0.03-0.483-0.737-1.453-1.171c-0.194-0.088-0.424,0-0.511,0.195c-0.087,0.195,0,0.424,0.195,0.511
							c0.75,0.336,1.115,0.879,1.118,0.884C267.528,175.081,267.652,175.144,267.78,175.144z"/>
					</g>
				</g>
				<path style="fill:#F9A38F;" d="M258.329,185.902v8.15c0,0-4.579,6.198-8.079,6.198c-2.761,0-3.84-5.339-3.84-5.339v-8.437
					L258.329,185.902z"/>
				<path style="fill:#F9856B;" d="M258.329,185.902v3.616c-2.206,2.447-6.123,3.059-11.919,2.203v-5.246L258.329,185.902z"/>
				<path style="fill:#F9A38F;" d="M266.92,164.973c-0.149,3.167-0.45,7.128-1.056,10.293v0.009c0,0.009-0.003,0.018-0.006,0.03
					c0,0.003-0.003,0.003-0.003,0.006c-0.149,0.773-0.316,1.5-0.499,2.154c-0.11,0.383-0.228,0.785-0.362,1.196
					c-1.932,6.061-6.407,14.832-17.656,10.819c-4.737-1.689-7.204-6.581-8.461-11.887c-0.073-0.316-0.143-0.63-0.204-0.931
					c-0.043-0.201-0.082-0.396-0.119-0.587l-0.055-0.283c-0.009-0.049-0.015-0.082-0.018-0.104
					c-0.003-0.012-0.003-0.018-0.003-0.018c-0.742-4.08-0.855-8.206-0.8-11.154c0.058-3.006,1.701-5.756,4.317-7.238
					c7.086-4.019,14.567-2.519,19.493-0.627C264.908,157.963,267.096,161.319,266.92,164.973z"/>
				<g>
					<path style="fill:#18285D;" d="M265.864,175.265l-1.728-0.122c0,0-0.986,2.041-2.44,4.293c-1.454-3.198-8.47-0.873-8.47-0.873
						c-0.444,0.143-0.9,0.216-1.36,0.216c-0.447,0-0.891-0.07-1.323-0.204l-0.033-0.012c0,0-7.101-2.227-8.501,1.126
						c-0.858-1.311-1.558-2.787-1.874-4.354l-1.655,0.335c0,0,0,0.006,0.003,0.018c0.003,0.021,0.009,0.055,0.018,0.104l0.055,0.283
						c0.036,0.192,0.076,0.386,0.119,0.587c0.061,0.301,0.131,0.615,0.204,0.931c1.257,5.306,3.724,10.198,8.461,11.887
						c11.248,4.013,15.724-4.758,17.656-10.819c0.392-1.634,0.788-3.085,0.861-3.35c0-0.003,0.003-0.003,0.003-0.006
						c0.003-0.012,0.006-0.021,0.006-0.03c0.003-0.006,0.003-0.009,0.003-0.009H265.864z M258.44,183.58v0.003
						c-0.003,0-0.003,0-0.003,0c-0.544,0.52-1.101,0.958-1.652,1.254c-3.116,1.686-3.453,1.433-4.685,1.485
						c-1.251,0.061-2.976-0.31-4.728-1.287c-0.548-0.307-1.363-0.901-2.255-1.713c0,0-1.262-4.323,6.766-3.24
						C259.934,178.697,258.574,182.735,258.44,183.58z"/>
				</g>
				<g>
					<path style="fill:#18285D;" d="M258.573,170.866c0,0.87-0.448,1.575-1.002,1.575c-0.553,0-1.001-0.705-1.001-1.575
						c0-0.87,0.448-1.575,1.001-1.575C258.125,169.291,258.573,169.996,258.573,170.866z"/>
				</g>
				<g>
					<path style="fill:#18285D;" d="M246.41,170.866c0,0.87-0.448,1.575-1.001,1.575c-0.553,0-1.002-0.705-1.002-1.575
						c0-0.87,0.448-1.575,1.002-1.575C245.961,169.291,246.41,169.996,246.41,170.866z"/>
				</g>
				<g>
					<path style="fill:#18285D;" d="M261.723,165.555c0,0-4.138-1.635-7.324-0.259l0.319,1.772c0,0,4.677-0.395,7.033,0.559
						C261.961,166.945,261.992,166.256,261.723,165.555z"/>
				</g>
				<g>
					<path style="fill:#18285D;" d="M242.047,165.563c0,0,4.169-1.647,7.378-0.261l-0.321,1.785c0,0-4.711-0.398-7.085,0.563
						C241.807,166.963,241.776,166.269,242.047,165.563z"/>
				</g>
				<g>
					<g>
						<g>
							<path style="fill:#F9856B;" d="M252.197,177.906c0.653,0,1.301-0.254,1.401-0.295c0.198-0.081,0.292-0.307,0.212-0.505
								c-0.08-0.198-0.307-0.293-0.504-0.212c-0.35,0.142-1.189,0.365-1.553,0.147c-0.07-0.042-0.166-0.125-0.191-0.361
								c-0.14-1.352,0.23-5.884,0.234-5.929c0.018-0.213-0.141-0.4-0.354-0.418c-0.214-0.018-0.4,0.141-0.417,0.354
								c-0.016,0.189-0.38,4.65-0.232,6.073c0.055,0.536,0.337,0.81,0.563,0.945C251.603,177.854,251.901,177.906,252.197,177.906z"
								/>
						</g>
					</g>
				</g>
				<path style="fill:#FFFFFF;" d="M247.332,180.855c0.294,1.479,1.271,4.2,4.562,4.2c3.299,0,4.224-2.486,4.542-4.2H247.332z"/>
				<g>
					<path style="fill:#18285D;" d="M266.921,164.971c-0.151,3.167-0.453,7.128-1.057,10.295l-1.731-0.123
						c0,0,0.419-2.674,0.613-4.417c0.193-1.742,0.522-4.999-0.964-5.405c-1.483-0.402-0.613-4.118-2.676-5.728
						c-2.064-1.614-6.68-2.057-9.723-0.184c-3.043,1.87-6.473-0.142-7.874,0.184c-1.405,0.321-3.31,2.257-2.795,4.065
						c0.519,1.804-1.03,2.904-1.405,4.774c-0.376,1.87,0.825,6.903,0.825,6.903l-1.653,0.333c-0.743-4.081-0.856-8.204-0.801-11.151
						c0.058-3.008,1.7-5.757,4.317-7.24c7.089-4.019,14.569-2.52,19.494-0.627C264.908,157.964,267.095,161.32,266.921,164.971z"/>
				</g>
			</g>
		</g>
	</g>
	<g>
		<g>
			<g>
				<path style="fill:#FBAE08;" d="M92.445,429.75h-21.24c-2.889,0-5.448-2.21-6.341-5.474l-9.007-32.94
					c-0.369-1.348,0.423-2.748,1.612-2.858c16.4-1.51,32.639-1.512,48.718-0.004c1.188,0.111,1.977,1.511,1.609,2.857l-9.008,32.944
					C97.893,427.54,95.333,429.75,92.445,429.75z"/>
			</g>
			<g>
				<path style="fill:#18285D;" d="M105.907,390.87c0,0.876-10.717,1.587-23.938,1.587c-13.22,0-23.938-0.71-23.938-1.587
					s10.717-1.587,23.938-1.587C95.19,389.283,105.907,389.994,105.907,390.87z"/>
			</g>
			<path style="fill:#7742C6;" d="M109.08,346.352c-8.614-2.269-21.776,15.611-25.773,33.044v-25.399
				c2.009-3.563,5.84-8.924,12.796-14.589c10.817-8.809,20.774-20.115,12.144-22.388c-8.087-2.13-20.182,13.499-24.94,29.845
				v-32.617c1.394-2.164,3.677-5.002,7.327-7.975c6.817-5.552,13.092-12.677,7.653-14.11c-4.72-1.243-11.606,7.112-14.98,16.535
				v-10.572c0.558-3.27,1.346-7.941,3.51-12.716c5.014-11.064,7.722-22.464,1.112-21.615c-6.617,0.849-10.907,20.554-7.289,35.682
				v5.44c-2.444-11.071-10.83-22.536-16.303-21.094c-5.439,1.432,0.837,8.558,7.654,14.11c5.189,4.226,7.618,8.182,8.649,10.31
				v25.694c-3.92-17.52-17.176-35.603-25.835-33.322c-8.63,2.273,1.327,13.579,12.144,22.388
				c8.174,6.657,12.034,12.895,13.691,16.288v30.812c-4.19-17.2-17.107-34.558-25.601-32.32c-8.63,2.273-1.229,10.535,10.927,20.528
				c8.261,6.791,12.686,13.958,14.674,17.855v14.513c0.964,0.27,1.867,0.269,2.667,0v-5.775c1.691-3.42,5.555-9.587,13.63-16.163
				C107.753,359.931,117.71,348.625,109.08,346.352z"/>
		</g>
	</g>
</g>
<g id="DESIGNED_BY_FREEPIK">
	<g>
		<g id="XMLID_1_">
			<g id="XMLID_20_">
				<path id="XMLID_28_" style="fill:#112129;" d="M260.104,465.465c-0.432,0.443-0.803,0.931-1.108,1.453l-0.465-0.241
					c-0.067-0.298-0.349-0.503-0.659-0.466c-0.331,0.039-0.568,0.339-0.529,0.67c0.039,0.331,0.339,0.568,0.67,0.529
					c0.065-0.008,0.127-0.026,0.183-0.052l0.452,0.234c-0.251,0.554-0.433,1.139-0.539,1.744l0.747,0.132
					c0.23-1.306,0.85-2.507,1.792-3.473L260.104,465.465z"/>
				<path id="XMLID_27_" style="fill:#112129;" d="M265.592,463.163c-0.171,0-0.341,0.006-0.51,0.017l-0.074-0.626
					c0.188-0.149,0.296-0.389,0.266-0.645c-0.046-0.393-0.402-0.674-0.795-0.628c-0.393,0.046-0.674,0.402-0.628,0.795
					c0.03,0.254,0.189,0.461,0.405,0.564l0.073,0.624c-0.714,0.116-1.403,0.332-2.06,0.646l0.327,0.684
					c0.934-0.447,1.942-0.673,2.995-0.673c0.496,0,0.993,0.053,1.475,0.158l0.161-0.741
					C266.692,463.222,266.142,463.163,265.592,463.163z"/>
				<path id="XMLID_26_" style="fill:#112129;" d="M272.194,465.711c0.331-0.04,0.566-0.341,0.526-0.672
					c-0.04-0.331-0.341-0.566-0.672-0.526c-0.309,0.038-0.535,0.304-0.53,0.609l-0.416,0.363c-0.418-0.43-0.89-0.813-1.408-1.139
					l-0.404,0.641c1.134,0.715,2.021,1.726,2.563,2.925l0.691-0.313c-0.251-0.554-0.568-1.072-0.942-1.545l0.402-0.351
					C272.065,465.716,272.129,465.719,272.194,465.711z"/>
				<path id="XMLID_25_" style="fill:#112129;" d="M265.044,473.372c-0.386,0.023-0.775,0.035-1.157,0.035
					c-0.88,0-1.733-0.061-2.478-0.179c-0.39-0.062-0.846-0.155-1.27-0.292c1.046,1.861,3.069,3.125,5.388,3.125
					c2.855,0,5.262-1.916,5.95-4.504c-0.682,0.449-1.505,0.825-2.459,1.123C267.839,473.047,266.464,473.286,265.044,473.372z"/>
				<path id="XMLID_21_" style="fill:#112129;" d="M265.592,464.68c-3.352,0-6.08,2.666-6.08,5.943c0,0.426,0.046,0.849,0.137,1.261
					c0.673,0.483,2.706,0.89,5.348,0.731c2.879-0.173,5.297-0.957,6.672-2.159c-0.005-0.195-0.021-0.39-0.045-0.582
					C271.244,466.913,268.65,464.68,265.592,464.68z M263.432,471.194c-1.02,0-1.85-0.83-1.85-1.85c0-1.02,0.83-1.85,1.85-1.85
					c1.02,0,1.85,0.83,1.85,1.85C265.282,470.365,264.452,471.194,263.432,471.194z M268.17,470.286c-0.75,0-1.36-0.61-1.36-1.36
					s0.61-1.361,1.36-1.361c0.75,0,1.361,0.61,1.361,1.361S268.92,470.286,268.17,470.286z"/>
			</g>
			<path id="XMLID_18_" style="fill:#112129;" d="M281.595,466.547c-0.295-0.116-0.805-0.309-1.382-0.237
				c-0.551,0.069-0.844,0.341-0.844,1.007v0.866h2.228v1.717h-2.228v5.455h-1.932v-5.455h-1.34v-1.717h1.34v-0.888
				c0-1.68,0.896-2.783,2.568-2.783c0.643,0,1.157,0.122,1.59,0.308L281.595,466.547z"/>
			<path id="XMLID_16_" style="fill:#112129;" d="M286.298,469.879c-0.177-0.03-0.358-0.046-0.526-0.046
				c-0.896,0-1.51,0.548-1.51,1.614v3.908h-1.932v-7.172h1.873v0.785c0.451-0.673,1.14-0.977,2.021-0.977
				c0.414,0,0.848,0.128,1.094,0.337L286.298,469.879z"/>
			<path id="XMLID_13_" style="fill:#112129;" d="M293.965,471.757c0,0.222-0.015,0.489-0.037,0.651h-5.085
				c0.207,1.036,0.933,1.488,1.843,1.488c0.622,0,1.295-0.252,1.813-0.688l1.132,1.243c-0.814,0.748-1.85,1.088-3.057,1.088
				c-2.198,0-3.723-1.495-3.723-3.753c0-2.258,1.48-3.797,3.627-3.797C292.544,467.99,293.958,469.522,293.965,471.757z
				 M288.851,471.091h3.175c-0.177-0.918-0.733-1.436-1.562-1.436C289.554,469.655,289.021,470.203,288.851,471.091z"/>
			<path id="XMLID_10_" style="fill:#112129;" d="M301.618,471.757c0,0.222-0.015,0.489-0.037,0.651h-5.085
				c0.207,1.036,0.933,1.488,1.843,1.488c0.622,0,1.295-0.252,1.813-0.688l1.132,1.243c-0.814,0.748-1.85,1.088-3.057,1.088
				c-2.198,0-3.723-1.495-3.723-3.753c0-2.258,1.48-3.797,3.627-3.797C300.197,467.99,301.611,469.522,301.618,471.757z
				 M296.504,471.091h3.175c-0.178-0.918-0.733-1.436-1.562-1.436C297.207,469.655,296.674,470.203,296.504,471.091z"/>
			<path id="XMLID_7_" style="fill:#112129;" d="M309.964,471.764c0,2.154-1.495,3.775-3.471,3.775
				c-0.962,0-1.643-0.378-2.109-0.933v3.708h-1.924v-10.133h1.887v0.792c0.466-0.585,1.155-0.984,2.139-0.984
				C308.469,467.99,309.964,469.61,309.964,471.764z M304.287,471.764c0,1.132,0.747,1.976,1.843,1.976
				c1.14,0,1.85-0.881,1.85-1.976c0-1.095-0.71-1.976-1.85-1.976C305.035,469.788,304.287,470.632,304.287,471.764z"/>
			<path id="XMLID_4_" style="fill:#112129;" d="M313.068,465.836c0,0.696-0.54,1.229-1.236,1.229c-0.696,0-1.229-0.533-1.229-1.229
				c0-0.696,0.533-1.243,1.229-1.243C312.527,464.592,313.068,465.14,313.068,465.836z M312.809,475.354h-1.932v-7.172h1.932
				V475.354z"/>
			<path id="XMLID_2_" style="fill:#112129;" d="M316.032,470.736l2.701-2.554h2.368l-3.479,3.375l3.501,3.797h-2.376l-2.716-2.901
				v2.901H314.1v-10.658h1.932V470.736z"/>
		</g>
		<g>
			<path style="fill:#112129;" d="M184.412,475.289v-1.055c-0.527,0.718-1.391,1.23-2.387,1.23c-1.846,0-3.149-1.406-3.149-3.706
				c0-2.256,1.289-3.721,3.149-3.721c0.952,0,1.816,0.469,2.387,1.245v-3.765h1.099v9.77H184.412z M184.412,473.37v-3.208
				c-0.395-0.615-1.245-1.143-2.124-1.143c-1.421,0-2.27,1.172-2.27,2.739c0,1.567,0.85,2.724,2.27,2.724
				C183.168,474.483,184.017,473.986,184.412,473.37z"/>
			<path style="fill:#112129;" d="M186.932,471.744c0-2.051,1.465-3.706,3.486-3.706c2.139,0,3.398,1.67,3.398,3.794v0.279h-5.727
				c0.088,1.333,1.025,2.446,2.549,2.446c0.805,0,1.626-0.322,2.182-0.894l0.527,0.718c-0.703,0.703-1.655,1.084-2.812,1.084
				C188.44,475.465,186.932,473.956,186.932,471.744z M190.403,468.947c-1.509,0-2.256,1.274-2.314,2.358h4.643
				C192.718,470.25,192.015,468.947,190.403,468.947z"/>
			<path style="fill:#112129;" d="M194.607,474.351l0.571-0.791c0.469,0.542,1.362,1.011,2.329,1.011c1.084,0,1.67-0.513,1.67-1.216
				c0-1.714-4.38-0.659-4.38-3.281c0-1.098,0.952-2.036,2.636-2.036c1.201,0,2.051,0.454,2.622,1.026l-0.513,0.762
				c-0.424-0.513-1.201-0.894-2.109-0.894c-0.967,0-1.567,0.483-1.567,1.113c0,1.552,4.38,0.527,4.38,3.281
				c0,1.187-0.952,2.138-2.783,2.138C196.306,475.465,195.325,475.113,194.607,474.351z"/>
			<path style="fill:#112129;" d="M201.477,466.471c0-0.41,0.337-0.747,0.732-0.747c0.41,0,0.747,0.337,0.747,0.747
				c0,0.41-0.337,0.732-0.747,0.732C201.814,467.203,201.477,466.881,201.477,466.471z M201.667,475.289v-7.075h1.099v7.075H201.667
				z"/>
			<path style="fill:#112129;" d="M204.582,477.105l0.556-0.82c0.586,0.703,1.289,0.967,2.3,0.967c1.172,0,2.27-0.571,2.27-2.124
				v-1.011c-0.513,0.718-1.377,1.26-2.373,1.26c-1.845,0-3.149-1.377-3.149-3.662c0-2.27,1.289-3.677,3.149-3.677
				c0.952,0,1.802,0.469,2.373,1.245v-1.069h1.098v6.87c0,2.344-1.641,3.076-3.369,3.076
				C206.237,478.16,205.417,477.926,204.582,477.105z M209.709,473.253v-3.091c-0.381-0.615-1.23-1.143-2.109-1.143
				c-1.421,0-2.27,1.128-2.27,2.695c0,1.553,0.849,2.695,2.27,2.695C208.478,474.41,209.328,473.868,209.709,473.253z"/>
			<path style="fill:#112129;" d="M217.413,475.289v-4.629c0-1.245-0.63-1.641-1.582-1.641c-0.865,0-1.685,0.527-2.095,1.099v5.17
				h-1.099v-7.075h1.099v1.025c0.498-0.586,1.465-1.201,2.519-1.201c1.48,0,2.256,0.747,2.256,2.285v4.966H217.413z"/>
			<path style="fill:#112129;" d="M219.932,471.744c0-2.051,1.465-3.706,3.486-3.706c2.139,0,3.398,1.67,3.398,3.794v0.279h-5.727
				c0.088,1.333,1.025,2.446,2.549,2.446c0.806,0,1.626-0.322,2.183-0.894l0.527,0.718c-0.703,0.703-1.655,1.084-2.812,1.084
				C221.441,475.465,219.932,473.956,219.932,471.744z M223.404,468.947c-1.509,0-2.256,1.274-2.314,2.358h4.643
				C225.718,470.25,225.015,468.947,223.404,468.947z"/>
			<path style="fill:#112129;" d="M233.35,475.289v-1.055c-0.527,0.718-1.392,1.23-2.388,1.23c-1.846,0-3.149-1.406-3.149-3.706
				c0-2.256,1.289-3.721,3.149-3.721c0.952,0,1.817,0.469,2.388,1.245v-3.765h1.098v9.77H233.35z M233.35,473.37v-3.208
				c-0.396-0.615-1.245-1.143-2.124-1.143c-1.421,0-2.27,1.172-2.27,2.739c0,1.567,0.849,2.724,2.27,2.724
				C232.105,474.483,232.954,473.986,233.35,473.37z"/>
			<path style="fill:#112129;" d="M239.692,475.289v-9.77h1.098v3.765c0.572-0.776,1.421-1.245,2.388-1.245
				c1.845,0,3.149,1.465,3.149,3.721c0,2.299-1.304,3.706-3.149,3.706c-0.996,0-1.86-0.513-2.388-1.23v1.055H239.692z
				 M242.9,474.483c1.436,0,2.285-1.157,2.285-2.724c0-1.568-0.85-2.739-2.285-2.739c-0.864,0-1.728,0.527-2.109,1.143v3.208
				C241.171,473.986,242.036,474.483,242.9,474.483z"/>
			<path style="fill:#112129;" d="M247.528,477.061c0.161,0.073,0.425,0.117,0.601,0.117c0.483,0,0.805-0.161,1.055-0.747
				l0.469-1.069l-2.959-7.148h1.187l2.358,5.8l2.344-5.8h1.201l-3.545,8.51c-0.425,1.025-1.143,1.421-2.08,1.435
				c-0.234,0-0.601-0.044-0.806-0.103L247.528,477.061z"/>
		</g>
	</g>
</g>
</svg>
